<?xml version="1.0" encoding="UTF-8"?>
<svg version="1.1" xmlns="http://www.w3.org/2000/svg" width="812" height="329">
<path d="M0 0 C3.96 0.99 7.92 1.98 12 3 C12.495 4.98 12.495 4.98 13 7 C13.99 7.495 13.99 7.495 15 8 C15.495 9.485 15.495 9.485 16 11 C16.99 11.495 16.99 11.495 18 12 C18.99024034 13.75687802 19.97805252 15.51614234 20.90234375 17.30859375 C22.04751017 19.31766868 22.04751017 19.31766868 25 21 C25 22.32 25 23.64 25 25 C25.99 25 26.98 25 28 25 C28.33 25.99 28.66 26.98 29 28 C29.680625 28.495 30.36125 28.99 31.0625 29.5 C32.0215625 30.2425 32.0215625 30.2425 33 31 C33 31.99 33 32.98 33 34 C33.99 34.33 34.98 34.66 36 35 C36 35.99 36 36.98 36 38 C36.66 38 37.32 38 38 38 C38 38.66 38 39.32 38 40 C39.32 40.33 40.64 40.66 42 41 C42 41.99 42 42.98 42 44 C42.66 44 43.32 44 44 44 C44 44.99 44 45.98 44 47 C44.61875 47.0825 45.2375 47.165 45.875 47.25 C48 48 48 48 49.0625 49.9375 C49.371875 50.618125 49.68125 51.29875 50 52 C50.99 52.66 51.98 53.32 53 54 C53 54.66 53 55.32 53 56 C53.66 56 54.32 56 55 56 C55.33 57.32 55.66 58.64 56 60 C56.99 60 57.98 60 59 60 C59 60.66 59 61.32 59 62 C59.721875 62.20625 60.44375 62.4125 61.1875 62.625 C64.97218384 64.47528988 66.52258653 66.60240438 69 70 C69 70.66 69 71.32 69 72 C70.32 72.33 71.64 72.66 73 73 C73 73.99 73 74.98 73 76 C73.969375 76.2475 74.93875 76.495 75.9375 76.75 C76.948125 77.1625 77.95875 77.575 79 78 C79.875 80.125 79.875 80.125 80 82 C81.32 82.33 82.64 82.66 84 83 C84 83.66 84 84.32 84 85 C84.99 85.33 85.98 85.66 87 86 C87 86.66 87 87.32 87 88 C89.97 88.495 89.97 88.495 93 89 C93 89.99 93 90.98 93 92 C93.886875 92.226875 94.77375 92.45375 95.6875 92.6875 C99.46442499 94.18401745 101.2285527 96.08268705 104 99 C105.31747324 99.69748583 106.64914193 100.36959957 108 101 C108.495 101.515625 108.99 102.03125 109.5 102.5625 C110.92562581 104.17243328 110.92562581 104.17243328 113.125 104.5 C113.74375 104.665 114.3625 104.83 115 105 C115.33 105.99 115.66 106.98 116 108 C116.495 108.4125 116.99 108.825 117.5 109.25 C119.76247456 111.88955365 119.68138743 114.62270673 120 118 C118.87926138 118.83905565 117.75325453 119.67107831 116.625 120.5 C115.99851563 120.9640625 115.37203125 121.428125 114.7265625 121.90625 C113 123 113 123 111 123 C111 123.66 111 124.32 111 125 C108.09451118 127.04169485 106.59857954 128 103 128 C102.67 128.99 102.34 129.98 102 131 C99.9375 131.6875 99.9375 131.6875 98 132 C98 132.66 98 133.32 98 134 C97.34 134 96.68 134 96 134 C96 134.66 96 135.32 96 136 C95.34 136 94.68 136 94 136 C94 136.66 94 137.32 94 138 C93.38125 138.061875 92.7625 138.12375 92.125 138.1875 C89.72238859 138.828919 89.72238859 138.828919 88.75 141.5625 C88.37875 142.7690625 88.37875 142.7690625 88 144 C87.01 144 86.02 144 85 144 C84.67 144.66 84.34 145.32 84 146 C83.01 146.66 82.02 147.32 81 148 C78.04681837 150.23289343 76.06891078 151.89663383 74 155 C73.34 155 72.68 155 72 155 C71.67 155.66 71.34 156.32 71 157 C70.01 157 69.02 157 68 157 C67.731875 157.804375 67.46375 158.60875 67.1875 159.4375 C66.795625 160.283125 66.40375 161.12875 66 162 C65.01 162.33 64.02 162.66 63 163 C62.690625 163.825 62.38125 164.65 62.0625 165.5 C61.711875 166.325 61.36125 167.15 61 168 C58.9375 168.625 58.9375 168.625 57 169 C56.67 169.99 56.34 170.98 56 172 C55.01 172 54.02 172 53 172 C52.67 173.32 52.34 174.64 52 176 C51.01 176 50.02 176 49 176 C48.67 177.32 48.34 178.64 48 180 C47.01 180 46.02 180 45 180 C44.6596875 181.0828125 44.6596875 181.0828125 44.3125 182.1875 C42.75173074 185.53200556 40.6266129 187.44073615 38 190 C37.67 190.99 37.34 191.98 37 193 C36.01 193.33 35.02 193.66 34 194 C32.65729179 195.99371825 31.32346506 197.9934562 30 200 C29.34 200 28.68 200 28 200 C27.01 202.97 27.01 202.97 26 206 C25.34 206 24.68 206 24 206 C23.566875 206.94875 23.13375 207.8975 22.6875 208.875 C21 212 21 212 18 214 C16.79517061 215.7179646 16.79517061 215.7179646 15.8125 217.625 C15.214375 218.73875 14.61625 219.8525 14 221 C13.34 221 12.68 221 12 221 C11.71125 221.804375 11.4225 222.60875 11.125 223.4375 C9.77106254 226.52146867 8.88603258 226.55698371 6 228 C1.88407008 227.62582455 -0.52735662 227.31509559 -4 225 C-5.61785127 222.36034793 -6 221.15987325 -6 218 C-6.66 218 -7.32 218 -8 218 C-8.2475 217.443125 -8.495 216.88625 -8.75 216.3125 C-9.97197763 213.87641289 -9.97197763 213.87641289 -12 211.5625 C-14 209 -14 209 -15 206.25 C-15.495 205.13625 -15.495 205.13625 -16 204 C-16.66 203.835 -17.32 203.67 -18 203.5 C-18.66 203.335 -19.32 203.17 -20 203 C-21.0625 200.625 -21.0625 200.625 -22 198 C-23.39588754 196.35405861 -23.39588754 196.35405861 -25 195 C-26.6875 193.4375 -26.6875 193.4375 -28 192 C-28 191.34 -28 190.68 -28 190 C-28.66 190 -29.32 190 -30 190 C-30 189.01 -30 188.02 -30 187 C-31.65 186.67 -33.3 186.34 -35 186 C-35.0825 185.38125 -35.165 184.7625 -35.25 184.125 C-35.79394438 181.82027141 -35.79394438 181.82027141 -38 180.9375 C-38.66 180.628125 -39.32 180.31875 -40 180 C-40.33 179.01 -40.66 178.02 -41 177 C-42.485 176.01 -42.485 176.01 -44 175 C-43.67 174.67 -43.34 174.34 -43 174 C-44.12279462 173.01830524 -45.24831473 172.03972702 -46.375 171.0625 C-47.00148437 170.51722656 -47.62796875 169.97195312 -48.2734375 169.41015625 C-49.95632334 167.93041376 -49.95632334 167.93041376 -52 167 C-52 166.01 -52 165.02 -52 164 C-53.65 163.34 -55.3 162.68 -57 162 C-57 161.34 -57 160.68 -57 160 C-57.99 159.67 -58.98 159.34 -60 159 C-60 158.34 -60 157.68 -60 157 C-60.556875 156.95875 -61.11375 156.9175 -61.6875 156.875 C-65.17346586 155.55598589 -66.71595476 152.86969787 -69 150 C-69.99 149.34 -70.98 148.68 -72 148 C-72 147.34 -72 146.68 -72 146 C-73.32 146 -74.64 146 -76 146 C-76 145.01 -76 144.02 -76 143 C-76.804375 142.71125 -77.60875 142.4225 -78.4375 142.125 C-81.52146867 140.77106254 -81.55698371 139.88603258 -83 137 C-83.61875 136.855625 -84.2375 136.71125 -84.875 136.5625 C-87 136 -87 136 -88.27734375 134.71875 C-91.37171164 131.63139881 -95.12089188 129.33214146 -98.69921875 126.83984375 C-99.83810547 125.92912109 -99.83810547 125.92912109 -101 125 C-101 124.34 -101 123.68 -101 123 C-102.98 122.34 -104.96 121.68 -107 121 C-107 120.34 -107 119.68 -107 119 C-107.66 119 -108.32 119 -109 119 C-111 116 -111 116 -110.8125 112.5 C-109.6979086 107.69868319 -109.6979086 107.69868319 -107 106 C-105.68 106 -104.36 106 -103 106 C-102.67 105.01 -102.34 104.02 -102 103 C-101.01 102.505 -101.01 102.505 -100 102 C-99.525625 101.505 -99.05125 101.01 -98.5625 100.5 C-97 99 -97 99 -94 98 C-93.67 97.34 -93.34 96.68 -93 96 C-92.071875 95.566875 -91.14375 95.13375 -90.1875 94.6875 C-86.75948848 92.87267037 -85.35464269 91.00419929 -83 88 C-82.01 88 -81.02 88 -80 88 C-80 87.34 -80 86.68 -80 86 C-75.64705882 82 -75.64705882 82 -72 82 C-71.505 80.515 -71.505 80.515 -71 79 C-70.01 79 -69.02 79 -68 79 C-67.896875 78.360625 -67.79375 77.72125 -67.6875 77.0625 C-67.460625 76.381875 -67.23375 75.70125 -67 75 C-66.01 74.67 -65.02 74.34 -64 74 C-63.484375 73.484375 -62.96875 72.96875 -62.4375 72.4375 C-61.963125 71.963125 -61.48875 71.48875 -61 71 C-60.34 71 -59.68 71 -59 71 C-59 70.01 -59 69.02 -59 68 C-58.34 68 -57.68 68 -57 68 C-57 67.34 -57 66.68 -57 66 C-54.72278729 63.53301957 -52.47411268 61.34241471 -49.75 59.375 C-47.70287125 58.02627166 -47.70287125 58.02627166 -47 55 C-45.68 55 -44.36 55 -43 55 C-42.814375 54.1028125 -42.814375 54.1028125 -42.625 53.1875 C-42 51 -42 51 -40 48 C-39.34 48.33 -38.68 48.66 -38 49 C-37.67 47.35 -37.34 45.7 -37 44 C-36.01 43.67 -35.02 43.34 -34 43 C-32.9739266 41.68662604 -31.97272675 40.35335895 -31 39 C-30.34 38.67 -29.68 38.34 -29 38 C-28.505 37.154375 -28.01 36.30875 -27.5 35.4375 C-27.005 34.633125 -26.51 33.82875 -26 33 C-25.34 33 -24.68 33 -24 33 C-23.34 31.02 -22.68 29.04 -22 27 C-21.01 27 -20.02 27 -19 27 C-19 26.01 -19 25.02 -19 24 C-18.01 23.505 -18.01 23.505 -17 23 C-16.505 21.515 -16.505 21.515 -16 20 C-15.01 20 -14.02 20 -13 20 C-12.71125 19.05125 -12.4225 18.1025 -12.125 17.125 C-11 14 -11 14 -9 12 C-8.505 11.29875 -8.01 10.5975 -7.5 9.875 C-7.005 9.25625 -6.51 8.6375 -6 8 C-5.34 8 -4.68 8 -4 8 C-4 7.34 -4 6.68 -4 6 C-3.34 6 -2.68 6 -2 6 C-1.34 4.02 -0.68 2.04 0 0 Z M-1 32 C-1.66 33.65 -2.32 35.3 -3 37 C-5.31 37.33 -7.62 37.66 -10 38 C-10.2475 38.804375 -10.495 39.60875 -10.75 40.4375 C-11.36875 41.7059375 -11.36875 41.7059375 -12 43 C-13.8125 43.5625 -13.8125 43.5625 -16 44 C-18.42816686 45.72462308 -18.42816686 45.72462308 -21 48 C-21.60714844 48.50402344 -22.21429688 49.00804688 -22.83984375 49.52734375 C-26.42192546 52.34812381 -26.42192546 52.34812381 -29 56 C-29.99 56.33 -30.98 56.66 -32 57 C-35.48101799 60.0565036 -37.60506348 62.56156561 -39 67 C-39.99 67 -40.98 67 -42 67 C-42 67.99 -42 68.98 -42 70 C-42.99 70.495 -42.99 70.495 -44 71 C-43.34 71.66 -42.68 72.32 -42 73 C-41.7525 72.195625 -41.505 71.39125 -41.25 70.5625 C-40.63125 69.2940625 -40.63125 69.2940625 -40 68 C-39.37867187 67.855625 -38.75734375 67.71125 -38.1171875 67.5625 C-35.37511584 66.83397912 -34.58801938 65.65725025 -32.875 63.4375 C-31.3671875 61.49609375 -31.3671875 61.49609375 -30 60 C-29.34 60 -28.68 60 -28 60 C-28 59.01 -28 58.02 -28 57 C-27.01 57 -26.02 57 -25 57 C-25 56.01 -25 55.02 -25 54 C-24.1646875 53.87625 -24.1646875 53.87625 -23.3125 53.75 C-20.30005197 52.77298983 -18.40617667 51.02625404 -16 49 C-15.34 48.67 -14.68 48.34 -14 48 C-14 47.34 -14 46.68 -14 46 C-13.34 46 -12.68 46 -12 46 C-11.67 45.34 -11.34 44.68 -11 44 C-10.01 43.67 -9.02 43.34 -8 43 C-8 42.34 -8 41.68 -8 41 C-7.4225 40.896875 -6.845 40.79375 -6.25 40.6875 C-3.92346317 40.12800796 -3.92346317 40.12800796 -2.125 38.5 C0.53604574 36.62161477 2.79984114 36.36365442 6 36 C6 35.34 6 34.68 6 34 C8.475 34.495 8.475 34.495 11 35 C11 35.99 11 36.98 11 38 C12.98 38.66 14.96 39.32 17 40 C17 40.66 17 41.32 17 42 C20.30350614 45.11997802 21.32409833 46 26 46 C26 45.01 26 44.02 26 43 C25.030625 42.731875 24.06125 42.46375 23.0625 42.1875 C22.051875 41.795625 21.04125 41.40375 20 41 C19.505 39.515 19.505 39.515 19 38 C16.39757586 36.35179805 15.13751221 36 12 36 C12 35.01 12 34.02 12 33 C7.61414671 32.29826347 3.44209357 31.89165625 -1 32 Z M26 46 C25.6799078 48.94131643 25.6799078 48.94131643 27.25 50.5 C27.8275 50.995 28.405 51.49 29 52 C29.66 52.5775 30.32 53.155 31 53.75 C31.66 54.1625 32.32 54.575 33 55 C33.99 54.67 34.98 54.34 36 54 C33.72584713 50.62911733 33.72584713 50.62911733 30 49 C30 48.34 30 47.68 30 47 C28.68 46.67 27.36 46.34 26 46 Z M4 55 C5 57 5 57 5 57 Z M36 56 C36.33 56.99 36.66 57.98 37 59 C37.825 59.309375 38.65 59.61875 39.5 59.9375 C40.325 60.288125 41.15 60.63875 42 61 C42.34342449 62.33076989 42.67619874 63.66431979 43 65 C44.63631892 66.04892238 46.30485863 67.04906703 48 68 C48.99 69.485 48.99 69.485 50 71 C50.66 71 51.32 71 52 71 C52.2475 71.5775 52.495 72.155 52.75 72.75 C54.18299988 75.32939979 55.78424676 77.06121592 58 79 C58.66 79 59.32 79 60 79 C60 78.01 60 77.02 60 76 C59.34 76 58.68 76 58 76 C57.67 75.01 57.34 74.02 57 73 C56.34 72.67 55.68 72.34 55 72 C53.875 69.9375 53.875 69.9375 53 68 C52.01 68 51.02 68 50 68 C49.67 66.68 49.34 65.36 49 64 C48.34 64 47.68 64 47 64 C47 63.34 47 62.68 47 62 C45.68 62 44.36 62 43 62 C43 60.68 43 59.36 43 58 C40.04622502 55.63019987 40.04622502 55.63019987 36 56 Z M3 57 C2.74605469 57.90621094 2.49210937 58.81242187 2.23046875 59.74609375 C0.5015944 65.8651434 -1.27449721 71.94156838 -3.33984375 77.95703125 C-4.40827455 81.26347685 -5.2009449 84.61938226 -6 88 C-3.69 88.66 -1.38 89.32 1 90 C1.11336409 95.92012469 0.88572653 101.66060629 0.21875 107.54296875 C-0.06273972 110.70470145 -0.03109151 113.82177511 0.0625 116.9921875 C0 119 0 119 -0.5625 121.1953125 C-0.7790625 122.08863281 -0.7790625 122.08863281 -1 123 C-0.01732141 124.20561184 -0.01732141 124.20561184 1.84765625 124.09765625 C4.92382812 124.04882812 4.92382812 124.04882812 8 124 C8.93380961 119.46859347 8.93380961 119.46859347 8 115 C7.64815781 111.17556081 7.53389426 107.33682895 7.375 103.5 C7.3234375 102.44167969 7.271875 101.38335937 7.21875 100.29296875 C7.17492187 99.27847656 7.13109375 98.26398438 7.0859375 97.21875 C7.0451709 96.28998047 7.0044043 95.36121094 6.96240234 94.40429688 C7 92 7 92 8 89 C10.31 89 12.62 89 15 89 C15.33 87.68 15.66 86.36 16 85 C15.01 85 14.02 85 13 85 C13 83.02 13 81.04 13 79 C12.34 79 11.68 79 11 79 C11 77.02 11 75.04 11 73 C10.34 73 9.68 73 9 73 C9.04125 72.29875 9.0825 71.5975 9.125 70.875 C8.98331668 67.61628372 8.13265314 65.0440053 7 62 C6.34 62 5.68 62 5 62 C4.67 60.35 4.34 58.7 4 57 C3.67 57 3.34 57 3 57 Z M-46 70 C-46 70.99 -46 71.98 -46 73 C-46.66 73 -47.32 73 -48 73 C-48.33 74.32 -48.66 75.64 -49 77 C-47.68 76.67 -46.36 76.34 -45 76 C-44.67 74.35 -44.34 72.7 -44 71 C-44.66 70.67 -45.32 70.34 -46 70 Z M-52 77 C-52.33 78.32 -52.66 79.64 -53 81 C-53.99 81 -54.98 81 -56 81 C-58.42713759 83.61851243 -58.42713759 83.61851243 -59 87 C-58.01 87.33 -57.02 87.66 -56 88 C-55.34 86.68 -54.68 85.36 -54 84 C-53.34 84 -52.68 84 -52 84 C-51.34 82.35 -50.68 80.7 -50 79 C-50.66 78.34 -51.32 77.68 -52 77 Z M-50 77 C-49 79 -49 79 -49 79 Z M60 80 C60.99 80.495 60.99 80.495 62 81 C62.625 83.0625 62.625 83.0625 63 85 C63.66 85 64.32 85 65 85 C65.33 85.99 65.66 86.98 66 88 C68.00016466 89.20882096 68.00016466 89.20882096 70 90 C69.52643877 85.73794894 67.15301808 83.71306207 64 81 C61.82653432 80.13880866 61.82653432 80.13880866 60 80 Z M-62 87 C-63.485 90.96 -63.485 90.96 -65 95 C-64.01 95 -63.02 95 -62 95 C-61.67 93.68 -61.34 92.36 -61 91 C-60.34 91 -59.68 91 -59 91 C-59.33 89.68 -59.66 88.36 -60 87 C-60.66 87 -61.32 87 -62 87 Z M71 91 C71 91.99 71 92.98 71 94 C71.66 94 72.32 94 73 94 C73 94.99 73 95.98 73 97 C73.66 97 74.32 97 75 97 C75.0825 97.61875 75.165 98.2375 75.25 98.875 C75.91214206 101.53489979 75.91214206 101.53489979 80 103 C78.68 100.36 77.36 97.72 76 95 C75.34 95 74.68 95 74 95 C73.67 93.68 73.34 92.36 73 91 C72.34 91 71.68 91 71 91 Z M-68 95 C-68.66 96.98 -69.32 98.96 -70 101 C-70.99 101 -71.98 101 -73 101 C-73.18175781 101.71027344 -73.36351562 102.42054687 -73.55078125 103.15234375 C-73.80214844 104.07144531 -74.05351563 104.99054688 -74.3125 105.9375 C-74.55613281 106.85402344 -74.79976562 107.77054688 -75.05078125 108.71484375 C-75.36402344 109.46894531 -75.67726562 110.22304687 -76 111 C-76.99 111.33 -77.98 111.66 -79 112 C-78.52309796 113.62566606 -78.04340334 115.25051311 -77.5625 116.875 C-77.29566406 117.77992187 -77.02882812 118.68484375 -76.75390625 119.6171875 C-76.07386174 121.98275381 -76.07386174 121.98275381 -75 124 C-74.34 124 -73.68 124 -73 124 C-72.690625 124.78375 -72.38125 125.5675 -72.0625 126.375 C-71.07124962 128.92330128 -71.07124962 128.92330128 -70 131 C-69.01 131 -68.02 131 -67 131 C-66.67 130.01 -66.34 129.02 -66 128 C-66.9590625 127.319375 -66.9590625 127.319375 -67.9375 126.625 C-70 125 -70 125 -71 123 C-71.515625 122.443125 -72.03125 121.88625 -72.5625 121.3125 C-74.67544248 117.91341861 -74.51270737 115.9734821 -74 112 C-70.25693161 102.6284658 -70.25693161 102.6284658 -67 101 C-66.27306096 99.02111039 -65.60183749 97.02045442 -65 95 C-65.99 95 -66.98 95 -68 95 Z M-22 97 C-22.66 97.66 -23.32 98.32 -24 99 C-25.98821313 99.39764263 -27.98944339 99.73775349 -30 100 C-30 100.66 -30 101.32 -30 102 C-31.32 102 -32.64 102 -34 102 C-34 102.66 -34 103.32 -34 104 C-34.99 103.67 -35.98 103.34 -37 103 C-37.61875 103.99 -38.2375 104.98 -38.875 106 C-39.57625 106.99 -40.2775 107.98 -41 109 C-41.66 109 -42.32 109 -43 109 C-43.97175052 113.56731933 -43.97175052 113.56731933 -43.359375 118.1015625 C-41.48059981 120.72536923 -39.67118186 121.15316182 -36.625 122.125 C-31.94761204 123.65050928 -28.09904362 125.26730425 -24 128 C-22.28555111 128.43738696 -20.55332216 128.80848688 -18.8125 129.125 C-17.91144531 129.29257813 -17.01039062 129.46015625 -16.08203125 129.6328125 C-15.05142578 129.81457031 -15.05142578 129.81457031 -14 130 C-13.34 129.01 -12.68 128.02 -12 127 C-15.87684087 125.80712589 -18.91621923 125 -23 125 C-23 124.01 -23 123.02 -23 122 C-24.98 121.34 -26.96 120.68 -29 120 C-29.75 117.25 -29.75 117.25 -30 114 C-28.125 111.75 -28.125 111.75 -26 110 C-25.67 109.34 -25.34 108.68 -25 108 C-21.82109196 105.99846531 -18.68746328 105.5028359 -15 105 C-14.67 104.01 -14.34 103.02 -14 102 C-14.78375 101.9175 -15.5675 101.835 -16.375 101.75 C-19 101 -19 101 -20.3125 98.9375 C-20.539375 98.298125 -20.76625 97.65875 -21 97 C-21.33 97 -21.66 97 -22 97 Z M23 99 C23 99.66 23 100.32 23 101 C23.66 101.66 24.32 102.32 25 103 C25.33 103.99 25.66 104.98 26 106 C27.051875 105.814375 28.10375 105.62875 29.1875 105.4375 C32.57119882 105.04920669 34.76425888 105.11752515 38 106 C38.33 105.01 38.66 104.02 39 103 C38.18015625 102.79503906 37.3603125 102.59007813 36.515625 102.37890625 C32.01041667 101.25260417 27.50520833 100.12630208 23 99 Z M80 103 C80 104.32 80 105.64 80 107 C80.66 107 81.32 107 82 107 C82.99 110.63 83.98 114.26 85 118 C85.66 118 86.32 118 87 118 C86.88601335 116.37419034 86.75844341 114.74932843 86.625 113.125 C86.52058594 111.76761719 86.52058594 111.76761719 86.4140625 110.3828125 C86.20431868 107.82058097 86.20431868 107.82058097 84 106 C83.34 105.67 82.68 105.34 82 105 C82 104.34 82 103.68 82 103 C81.34 103 80.68 103 80 103 Z M38 106 C37.67 106.66 37.34 107.32 37 108 C38.32 108.33 39.64 108.66 41 109 C41.76173392 113.3164922 42.16063604 116.74433453 41 121 C40.01 120.67 39.02 120.34 38 120 C37.01 120.495 37.01 120.495 36 121 C36 121.66 36 122.32 36 123 C32.7 123.66 29.4 124.32 26 125 C26.33 125.99 26.66 126.98 27 128 C29.97 127.34 32.94 126.68 36 126 C36 125.34 36 124.68 36 124 C37.175625 124.0928125 37.175625 124.0928125 38.375 124.1875 C39.24125 124.125625 40.1075 124.06375 41 124 C41.66 123.01 42.32 122.02 43 121 C43.66 121 44.32 121 45 121 C46.49821059 117.62902617 47 115.79557881 47 112 C46.34 112 45.68 112 45 112 C44.95875 111.38125 44.9175 110.7625 44.875 110.125 C44.58625 109.42375 44.2975 108.7225 44 108 C41.00384054 106.6954344 41.00384054 106.6954344 38 106 Z M84 118 C85 120 85 120 85 120 Z M81 121 C80.7525 121.94875 80.505 122.8975 80.25 123.875 C78.79227539 127.51931151 78.29988304 127.40005671 75 129 C73.96567096 130.98246398 72.96761608 132.98413316 72 135 C70.66666667 136.33333333 69.33333333 137.66666667 68 139 C68 139.99 68 140.98 68 142 C68.66 142 69.32 142 70 142 C70 141.01 70 140.02 70 139 C70.66 139 71.32 139 72 139 C72.4021875 137.7934375 72.4021875 137.7934375 72.8125 136.5625 C73.204375 135.716875 73.59625 134.87125 74 134 C74.99 133.67 75.98 133.34 77 133 C77.33 132.175 77.66 131.35 78 130.5 C78.33 129.675 78.66 128.85 79 128 C79.99 127.67 80.98 127.34 82 127 C82.33 125.35 82.66 123.7 83 122 C82.34 121.67 81.68 121.34 81 121 Z M-10 126 C-10.99 127.485 -10.99 127.485 -12 129 C-3.27913365 130.80072496 4.88700164 131.11453669 13.75 130.6875 C14.72662598 130.64052979 15.70325195 130.59355957 16.70947266 130.54516602 C21.51422386 130.42655935 21.51422386 130.42655935 26 129 C26 128.34 26 127.68 26 127 C22.98968256 126.06576355 22.13349732 125.95550089 19 127 C16.54994067 127.06747151 14.11791051 126.99827375 11.66796875 126.9375 C8.94553724 126.92722625 8.94553724 126.92722625 6.10546875 127.55859375 C2.5325556 128.06644178 -0.32690288 127.67798623 -3.875 127.0625 C-5.60363281 126.77052734 -5.60363281 126.77052734 -7.3671875 126.47265625 C-8.67042969 126.23869141 -8.67042969 126.23869141 -10 126 Z M-67 131 C-67 132.32 -67 133.64 -67 135 C-65.68 134.67 -64.36 134.34 -63 134 C-63.66 133.01 -64.32 132.02 -65 131 C-65.66 131 -66.32 131 -67 131 Z M-64 135 C-64 136.32 -64 137.64 -64 139 C-62.68 139.33 -61.36 139.66 -60 140 C-60 140.99 -60 141.98 -60 143 C-59.01 143 -58.02 143 -57 143 C-56.67 143.66 -56.34 144.32 -56 145 C-55.67 144.01 -55.34 143.02 -55 142 C-55.61875 141.7525 -56.2375 141.505 -56.875 141.25 C-59.38710296 139.77229238 -59.76107344 138.56044823 -61 136 C-61.99 135.67 -62.98 135.34 -64 135 Z M5.6875 134.5 C3 135 3 135 -1 135 C-0.98839844 135.68964844 -0.97679688 136.37929687 -0.96484375 137.08984375 C-0.91962085 141.79948614 -0.96837483 146.38566856 -1.5625 151.0625 C-2.33644539 154.77981861 -2.33644539 154.77981861 -1 157 C-1.0870204 158.71233688 -1.24097162 160.42175406 -1.4375 162.125 C-1.53933594 163.03507812 -1.64117187 163.94515625 -1.74609375 164.8828125 C-1.82988281 165.58148438 -1.91367188 166.28015625 -2 167 C4.06050614 168.0812391 4.06050614 168.0812391 10 167 C11.37736348 163.06176071 10.88787135 159.20149165 10.5625 155.125 C10.20814033 150.40895399 9.9332361 145.73281892 10 141 C9.34 141 8.68 141 8 141 C8.33 138.69 8.66 136.38 9 134 C7.76857959 133.96477787 7.76857959 133.96477787 5.6875 134.5 Z M-2 142 C-1 144 -1 144 -1 144 Z M63.31640625 143.609375 C62.44822266 144.66898438 62.44822266 144.66898438 61.5625 145.75 C59.14736045 148.63588709 56.71838761 151.3903479 54 154 C54.33 154.99 54.66 155.98 55 157 C55.66 156.67 56.32 156.34 57 156 C57 155.01 57 154.02 57 153 C57.99 153 58.98 153 60 153 C60.2475 152.195625 60.495 151.39125 60.75 150.5625 C61.1625 149.716875 61.575 148.87125 62 148 C63.33333333 147.66666667 64.66666667 147.33333333 66 147 C67.29660434 144.50965614 67.29660434 144.50965614 68 142 C64.97325154 141.65450293 64.97325154 141.65450293 63.31640625 143.609375 Z M-56 145 C-56 145.99 -56 146.98 -56 148 C-54.35 148.33 -52.7 148.66 -51 149 C-51 148.01 -51 147.02 -51 146 C-52.65 145.67 -54.3 145.34 -56 145 Z M-51 149 C-51.33 149.99 -51.66 150.98 -52 152 C-51.34 152 -50.68 152 -50 152 C-50 152.66 -50 153.32 -50 154 C-48.68 153.67 -47.36 153.34 -46 153 C-46.66 153 -47.32 153 -48 153 C-47.67 152.01 -47.34 151.02 -47 150 C-48.32 149.67 -49.64 149.34 -51 149 Z M-46 154 C-46 155.32 -46 156.64 -46 158 C-45.01 158.33 -44.02 158.66 -43 159 C-40.55926814 161.23733753 -38.39792072 163.51537637 -36.296875 166.07421875 C-35.70390625 166.79222656 -35.1109375 167.51023438 -34.5 168.25 C-33.9534375 168.93578125 -33.406875 169.6215625 -32.84375 170.328125 C-30.6086012 172.35491247 -28.95647511 172.6557529 -26 173 C-26 172.34 -26 171.68 -26 171 C-27.71885317 169.26111909 -27.71885317 169.26111909 -29.875 167.5 C-31.99035504 165.71066742 -34.04019124 163.95980876 -36 162 C-36.99 161.67 -37.98 161.34 -39 161 C-39.103125 160.38125 -39.20625 159.7625 -39.3125 159.125 C-39.85776352 156.62535475 -39.85776352 156.62535475 -43.0625 155.25 C-44.031875 154.8375 -45.00125 154.425 -46 154 Z M51 156 C49.29467677 157.94009522 49.29467677 157.94009522 48 160 C48.33 160.66 48.66 161.32 49 162 C49.99 161.67 50.98 161.34 52 161 C53.21869929 158.49552484 53.21869929 158.49552484 54 156 C53.01 156 52.02 156 51 156 Z M-3 157 C-2 159 -2 159 -2 159 Z M46 162 C44.3553326 164.46326712 44.3553326 164.46326712 43 167 C43.99 167 44.98 167 46 167 C46.66 165.35 47.32 163.7 48 162 C47.34 162 46.68 162 46 162 Z M40 167 C40 168.32 40 169.64 40 171 C40.99 170.67 41.98 170.34 43 170 C43 169.01 43 168.02 43 167 C42.01 167 41.02 167 40 167 Z M36 170 C36 170.99 36 171.98 36 173 C35.34 173 34.68 173 34 173 C34 173.66 34 174.32 34 175 C32.68 175.33 31.36 175.66 30 176 C30.33 176.99 30.66 177.98 31 179 C31.99 178.67 32.98 178.34 34 178 C34 177.34 34 176.68 34 176 C34.99 176 35.98 176 37 176 C37.33 175.01 37.66 174.02 38 173 C37.34 172.01 36.68 171.02 36 170 Z M38 170 C39 173 39 173 39 173 Z M-26 174 C-26 174.99 -26 175.98 -26 177 C-24.68 177.33 -23.36 177.66 -22 178 C-22.33 176.68 -22.66 175.36 -23 174 C-23.99 174 -24.98 174 -26 174 Z M-21 176 C-21.33 176.99 -21.66 177.98 -22 179 C-21.34 179 -20.68 179 -20 179 C-19.7525 179.639375 -19.505 180.27875 -19.25 180.9375 C-18.18437567 183.18741541 -18.18437567 183.18741541 -15.875 183.75 C-15.25625 183.8325 -14.6375 183.915 -14 184 C-13.67 183.34 -13.34 182.68 -13 182 C-15.81509993 179.7226499 -15.81509993 179.7226499 -19 180 C-19.66 178.68 -20.32 177.36 -21 176 Z M28 178 C28 178.66 28 179.32 28 180 C27.01 180 26.02 180 25 180 C24.67 181.32 24.34 182.64 24 184 C25.32 184 26.64 184 28 184 C30.2773501 181.18490007 30.2773501 181.18490007 30 178 C29.34 178 28.68 178 28 178 Z M21 183 C21 183.99 21 184.98 21 186 C21.99 186 22.98 186 24 186 C23.67 185.01 23.34 184.02 23 183 C22.34 183 21.68 183 21 183 Z M-14 184 C-14 184.99 -14 185.98 -14 187 C-11.18490007 189.2773501 -11.18490007 189.2773501 -8 189 C-8.33 187.68 -8.66 186.36 -9 185 C-10.65 184.67 -12.3 184.34 -14 184 Z M17 186 C16.01 187.485 16.01 187.485 15 189 C14.34 189 13.68 189 13 189 C12.34 189.66 11.68 190.32 11 191 C10.34 191 9.68 191 9 191 C9 191.66 9 192.32 9 193 C8.32453125 192.855625 7.6490625 192.71125 6.953125 192.5625 C6.06109375 192.376875 5.1690625 192.19125 4.25 192 C3.36828125 191.814375 2.4865625 191.62875 1.578125 191.4375 C-1.22143965 190.88846325 -1.22143965 190.88846325 -5 191 C-5 191.66 -5 192.32 -5 193 C-0.37802694 195.21854707 2.76824163 196.38281159 8 196 C8 195.34 8 194.68 8 194 C8.99 194.33 9.98 194.66 11 195 C13.10231241 194.99530794 13.10231241 194.99530794 15 194 C15.33 193.175 15.66 192.35 16 191.5 C16.33 190.675 16.66 189.85 17 189 C19.125 188.1875 19.125 188.1875 21 188 C21 187.34 21 186.68 21 186 C19.68 186 18.36 186 17 186 Z " fill="#6856A5" transform="translate(125,0)"/>
<path d="M0 0 C2.27113803 0.14100857 4.54190725 0.28796755 6.8125 0.4375 C8.07707031 0.51871094 9.34164062 0.59992187 10.64453125 0.68359375 C14 1 14 1 17 2 C17.33 1.34 17.66 0.68 18 0 C18.93972656 0.12568359 18.93972656 0.12568359 19.8984375 0.25390625 C21.12433594 0.40666016 21.12433594 0.40666016 22.375 0.5625 C23.59316406 0.71912109 23.59316406 0.71912109 24.8359375 0.87890625 C27.04899186 1.18237328 27.04899186 1.18237328 29 0 C34.02991769 0.1958552 39.09778509 0.85614986 44 2 C44.33 1.34 44.66 0.68 45 0 C45.61488281 0.08378906 46.22976563 0.16757812 46.86328125 0.25390625 C47.67152344 0.35574219 48.47976563 0.45757813 49.3125 0.5625 C50.11300781 0.66691406 50.91351562 0.77132813 51.73828125 0.87890625 C54.16817116 1.14755178 54.16817116 1.14755178 57 0 C57.763125 0.165 58.52625 0.33 59.3125 0.5 C62.00973492 1.16670788 62.00973492 1.16670788 64.75 0.5 C68.23761219 -0.03655572 71.18401826 0.14192057 74.6875 0.5 C79.42107182 1.01454819 79.42107182 1.01454819 84 0 C86.48046875 0.33984375 86.48046875 0.33984375 89.1875 0.9375 C90.08855469 1.13214844 90.98960937 1.32679687 91.91796875 1.52734375 C92.94857422 1.76130859 92.94857422 1.76130859 94 2 C94.33 1.34 94.66 0.68 95 0 C95.99 0.0721875 96.98 0.144375 98 0.21875 C99.33328982 0.3131168 100.66662642 0.40682412 102 0.5 C103.03133057 0.57263062 103.03133057 0.57263062 104.08349609 0.64672852 C107.60979278 0.88312131 111.09233859 1.03979715 114.625 0.9375 C118 1 118 1 123 3 C123 14.22 123 25.44 123 37 C118.40043481 37.7665942 114.55881013 38.12850976 109.95703125 38.1328125 C109.30675461 38.13376923 108.65647797 38.13472595 107.98649597 38.13571167 C106.62258812 38.13638783 105.25867694 38.13457318 103.89477539 38.13037109 C101.80803246 38.12498848 99.72150218 38.13034853 97.63476562 38.13671875 C95.65959961 38.13478516 95.65959961 38.13478516 93.64453125 38.1328125 C92.44159424 38.13168457 91.23865723 38.13055664 89.99926758 38.12939453 C87 38 87 38 84 37 C83.505 37.99 83.505 37.99 83 39 C81.9584375 38.835 80.916875 38.67 79.84375 38.5 C73.74456778 37.73760222 67.63519372 37.93324055 61.5 38 C54.23672502 38.07903455 47.1859992 38.13837611 40 37 C40.24556641 38.59328125 40.24556641 38.59328125 40.49609375 40.21875 C41.2151081 45.9708648 41.10749889 51.71245098 41.0625 57.5 C41.05798828 58.60859375 41.05347656 59.7171875 41.04882812 60.859375 C41.03713158 63.57297399 41.02074086 66.28645761 41 69 C41.86882813 68.81566406 42.73765625 68.63132812 43.6328125 68.44140625 C47.0619136 67.99188372 49.50889548 68.23964906 52.875 68.9375 C53.84179688 69.13214844 54.80859375 69.32679687 55.8046875 69.52734375 C56.89136719 69.76130859 56.89136719 69.76130859 58 70 C58.33 69.34 58.66 68.68 59 68 C60.75032844 68.14183696 62.50025534 68.28863429 64.25 68.4375 C65.71179688 68.55931641 65.71179688 68.55931641 67.203125 68.68359375 C70 69 70 69 72.2421875 69.5625 C74.47569838 70.11839604 75.78628556 69.58598323 78 69 C80 69 82 69 84 69 C84.66 68.67 85.32 68.34 86 68 C87.88484944 68.24621907 89.76022087 68.56888087 91.625 68.9375 C92.62789062 69.13214844 93.63078125 69.32679687 94.6640625 69.52734375 C95.82035156 69.76130859 95.82035156 69.76130859 97 70 C97.33 69.34 97.66 68.68 98 68 C99.77119803 68.14133499 101.54195287 68.28823208 103.3125 68.4375 C104.79169922 68.55931641 104.79169922 68.55931641 106.30078125 68.68359375 C109 69 109 69 112 70 C112.33 69.34 112.66 68.68 113 68 C114.485 68.495 114.485 68.495 116 69 C116.6854405 73.55554303 117.17283476 77.79291013 116.5 82.375 C115.73512266 85.94351384 115.73512266 85.94351384 117 89 C116.91331832 91.16983826 116.75976335 93.3374092 116.5625 95.5 C116.13940737 100.24364094 116.13940737 100.24364094 116 105 C115.37432129 104.99476318 114.74864258 104.98952637 114.10400391 104.98413086 C111.27767943 104.96338382 108.45137095 104.95034714 105.625 104.9375 C104.64015625 104.92912109 103.6553125 104.92074219 102.640625 104.91210938 C101.69960938 104.90888672 100.75859375 104.90566406 99.7890625 104.90234375 C98.91975098 104.89710693 98.05043945 104.89187012 97.15478516 104.88647461 C94.94950006 104.85877649 94.94950006 104.85877649 93 106 C91.23095276 105.75718959 89.46227459 105.51145238 87.6953125 105.25390625 C82.90657083 104.8027929 78.09730077 104.98539939 73.29296875 105.0625 C70 105 70 105 67 104 C66.67 104.66 66.34 105.32 66 106 C62.7 105.34 59.4 104.68 56 104 C55.67 104.66 55.34 105.32 55 106 C51.7 105.34 48.4 104.68 45 104 C45 104.66 45 105.32 45 106 C43.68 106 42.36 106 41 106 C40.97301811 107.62490954 40.95361243 109.24994633 40.9375 110.875 C40.92589844 111.77992188 40.91429687 112.68484375 40.90234375 113.6171875 C40.83750743 116.0168585 40.83750743 116.0168585 42 118 C41.76882879 119.94844306 41.53327663 121.89661788 41.26171875 123.83984375 C40.70804659 128.40970499 40.7874781 132.57333276 42 137 C42.76554199 136.98952637 43.53108398 136.97905273 44.31982422 136.96826172 C47.83818182 136.92630696 51.35648652 136.90054937 54.875 136.875 C56.68097656 136.84986328 56.68097656 136.84986328 58.5234375 136.82421875 C65.60751691 136.78571832 72.12667175 137.23949115 79 139 C79 138.34 79 137.68 79 137 C81.01822917 137.03255208 83.03645833 137.06510417 85.0546875 137.09765625 C87.08185404 137.12649242 87.08185404 137.12649242 89 136 C92.15886117 136.35509446 95.27687475 136.82329019 98.4140625 137.328125 C101.93449204 137.85480344 104.59915716 138.03536771 108 137 C110.34114367 137.27313343 112.67750658 137.59802999 115 138 C115.33 137.34 115.66 136.68 116 136 C118.97 136.99 118.97 136.99 122 138 C121.979375 138.9075 121.95875 139.815 121.9375 140.75 C121.85690642 143.77762129 121.85690642 143.77762129 122.4921875 145.72265625 C123.22947952 149.0291274 123.19141494 152.3167324 123.1875 155.6875 C123.18669434 156.39922363 123.18588867 157.11094727 123.18505859 157.84423828 C123.03263789 170.96736211 123.03263789 170.96736211 119 175 C116.14616221 174.9560948 113.39855425 174.81308448 110.5625 174.5625 C104.71825266 173.95390598 104.71825266 173.95390598 99 175 C96.51953125 174.66015625 96.51953125 174.66015625 93.8125 174.0625 C92.91144531 173.86785156 92.01039063 173.67320312 91.08203125 173.47265625 C90.05142578 173.23869141 90.05142578 173.23869141 89 173 C88.67 173.66 88.34 174.32 88 175 C76.6410877 175.17297836 76.6410877 175.17297836 71.125 174.4375 C67.4998806 173.97224403 64.61615225 174.36185548 61 175 C53.49142432 175.307169 46.08971624 174.84684294 38.6171875 174.12109375 C36.01828494 173.78749278 36.01828494 173.78749278 34 175 C31.12981108 175.09920439 28.28441658 175.13981107 25.4140625 175.1328125 C24.56073334 175.13376923 23.70740417 175.13472595 22.82821655 175.13571167 C21.02089362 175.13639286 19.21356825 175.13454282 17.40625 175.13037109 C14.64317294 175.1250351 11.8802594 175.13031134 9.1171875 175.13671875 C7.36197881 175.1360577 5.60677022 175.13477598 3.8515625 175.1328125 C3.02540436 175.13483673 2.19924622 175.13686096 1.34805298 175.13894653 C0.57400116 175.13579437 -0.20005066 175.13264221 -0.99755859 175.12939453 C-1.67547455 175.12859894 -2.3533905 175.12780334 -3.05184937 175.12698364 C-5.13362244 174.99129027 -6.99512116 174.56360665 -9 174 C-9.8065953 167.63935125 -10.14784524 161.44682332 -10.1328125 155.0390625 C-10.13376923 154.12667816 -10.13472595 153.21429382 -10.13571167 152.27426147 C-10.13638728 150.36334158 -10.1345766 148.4524193 -10.13037109 146.54150391 C-10.12497652 143.61225296 -10.13035614 140.68315273 -10.13671875 137.75390625 C-10.13605859 135.89062466 -10.13477871 134.02734317 -10.1328125 132.1640625 C-10.13483673 131.28908112 -10.13686096 130.41409973 -10.13894653 129.51260376 C-10.13421829 128.29521011 -10.13421829 128.29521011 -10.12939453 127.05322266 C-10.12859894 126.34090485 -10.12780334 125.62858704 -10.12698364 124.89468384 C-10 123 -10 123 -9 120 C-9.66 119.67 -10.32 119.34 -11 119 C-10.9292627 118.46375 -10.85852539 117.9275 -10.78564453 117.375 C-9.91791351 109.95734856 -9.84695843 102.56942649 -9.86962891 95.11083984 C-9.87506064 92.97616709 -9.86961557 90.84169822 -9.86328125 88.70703125 C-9.86394088 87.3463537 -9.86521965 85.98567628 -9.8671875 84.625 C-9.86831543 83.40039062 -9.86944336 82.17578125 -9.87060547 80.9140625 C-9.7991165 78.06251969 -9.7991165 78.06251969 -11 76 C-10.82664793 73.67708221 -10.48561708 71.39931955 -10.15625 69.09375 C-9.81577246 66.94134118 -9.81577246 66.94134118 -11 65 C-10.75733907 63.19304272 -10.51233633 61.38637919 -10.2578125 59.58105469 C-9.71220318 54.11876142 -9.94167045 48.60797736 -10 43.125 C-10.02541599 40.69014769 -10.04648071 38.25524476 -10.0625 35.8203125 C-10.07410156 34.75055176 -10.08570313 33.68079102 -10.09765625 32.57861328 C-10 30 -10 30 -9 28 C-9.66 28 -10.32 28 -11 28 C-10.9278125 27.45214844 -10.855625 26.90429688 -10.78125 26.33984375 C-9.86811039 18.54010957 -9.90589614 10.84198809 -10 3 C-9.34 3 -8.68 3 -8 3 C-8 2.34 -8 1.68 -8 1 C-2.25 0.875 -2.25 0.875 0 2 C0 1.34 0 0.68 0 0 Z " fill="#6955A5" transform="translate(506,29)"/>
<path d="M0 0 C1.6254308 0.14095064 3.25034051 0.28792087 4.875 0.4375 C5.77992188 0.51871094 6.68484375 0.59992187 7.6171875 0.68359375 C10 1 10 1 12 2 C12 1.34 12 0.68 12 0 C13.05960938 0.08378906 14.11921875 0.16757812 15.2109375 0.25390625 C16.59893625 0.35706832 17.98695835 0.45991663 19.375 0.5625 C20.07367187 0.61857422 20.77234375 0.67464844 21.4921875 0.73242188 C25.36528865 1.11499904 25.36528865 1.11499904 29 0 C29.9075 0.165 30.815 0.33 31.75 0.5 C34.92610373 1.16858421 34.92610373 1.16858421 37.78125 0.5 C41.27403045 -0.04256784 44.23985026 0.14413228 47.75 0.5 C52.02699114 1.12717622 52.02699114 1.12717622 56 0 C58.29044977 0.17384818 60.53572142 0.51423968 62.80859375 0.84375 C65.17834025 1.15327436 65.17834025 1.15327436 68 0 C70.30565841 0.1670767 72.55706066 0.5083689 74.84375 0.84375 C77.18384094 1.15203422 77.18384094 1.15203422 80 0 C81.56717914 0.11460177 83.13021354 0.29013597 84.6875 0.5 C89.54422453 1.01530234 94.20654495 0.88226881 99.0625 0.5 C106.61572774 -0.08094919 113.65662377 0.04838199 121 2 C121.33 1.34 121.66 0.68 122 0 C122.5775 0.185625 123.155 0.37125 123.75 0.5625 C126.20692525 1.04023546 127.64397534 0.75729364 130 0 C130.93717267 3.96367267 131.12888933 7.65823111 131.1328125 11.7265625 C131.13410156 13.0053125 131.13539063 14.2840625 131.13671875 15.6015625 C131.13462402 16.26188477 131.1325293 16.92220703 131.13037109 17.60253906 C131.12499807 19.62572665 131.13034112 21.64869408 131.13671875 23.671875 C131.13478516 25.58613281 131.13478516 25.58613281 131.1328125 27.5390625 C131.13168457 28.70646973 131.13055664 29.87387695 131.12939453 31.07666016 C131 34 131 34 130 37 C127.33373641 37.19693992 124.66743361 37.38274782 122 37.5625 C120.88431641 37.64661133 120.88431641 37.64661133 119.74609375 37.73242188 C115.94270071 37.98046925 112.40465537 38.00392921 108.625 37.46484375 C105.05509034 36.74034563 105.05509034 36.74034563 102 38 C99.67863334 38.0957004 97.35458757 38.13073915 95.03125 38.1328125 C94.35453247 38.13376923 93.67781494 38.13472595 92.98059082 38.13571167 C91.55167549 38.13639132 90.12275704 38.13455201 88.69384766 38.13037109 C86.5080674 38.12501975 84.32249262 38.13032328 82.13671875 38.13671875 C80.74739538 38.13605793 79.35807214 38.13477669 77.96875 38.1328125 C76.70482422 38.13168457 75.44089844 38.13055664 74.13867188 38.12939453 C71 38 71 38 68 37 C67.505 37.99 67.505 37.99 67 39 C65.31970703 38.76603516 65.31970703 38.76603516 63.60546875 38.52734375 C62.13286041 38.33037066 60.66020144 38.13377577 59.1875 37.9375 C58.44951172 37.83373047 57.71152344 37.72996094 56.95117188 37.62304688 C53.56825221 37.17913434 51.27944975 36.90685008 48 38 C48.24556641 39.88525391 48.24556641 39.88525391 48.49609375 41.80859375 C49.09918182 47.23638634 49.11185202 52.60720338 49.0625 58.0625 C49.05798828 59.02349609 49.05347656 59.98449219 49.04882812 60.97460938 C49.03717706 63.31647422 49.02082025 65.65820181 49 68 C53.19405362 68.7999922 57.12009614 69.10830583 61.38671875 69.0625 C62.57201172 69.05476563 63.75730469 69.04703125 64.97851562 69.0390625 C66.20248047 69.02617188 67.42644531 69.01328125 68.6875 69 C71.12886227 68.97452935 73.57027593 68.95348326 76.01171875 68.9375 C77.08897217 68.92589844 78.16622559 68.91429688 79.27612305 68.90234375 C82 69 82 69 85 70 C85.33 69.34 85.66 68.68 86 68 C87.093125 68.165 88.18625 68.33 89.3125 68.5 C93.78381887 69.07591227 98.17850072 69.037805 102.6796875 68.9375 C105 69 105 69 107 70 C107 69.34 107 68.68 107 68 C109.10448938 68.14109986 111.2085877 68.28804175 113.3125 68.4375 C115.07013672 68.55931641 115.07013672 68.55931641 116.86328125 68.68359375 C120 69 120 69 123 70 C123.79029145 75.3344673 124.0729355 80.40875545 123.9375 85.80078125 C123.89901638 88.17896616 123.89901638 88.17896616 125 91 C124.94921875 93.05078125 124.94921875 93.05078125 124.6875 95.3125 C124.60886719 96.05113281 124.53023437 96.78976563 124.44921875 97.55078125 C123.91160777 100.48192982 122.9921375 103.1936682 122 106 C120.81921875 105.84402344 119.6384375 105.68804687 118.421875 105.52734375 C116.86463212 105.33034314 115.30733767 105.13374987 113.75 104.9375 C112.97269531 104.83373047 112.19539062 104.72996094 111.39453125 104.62304688 C110.64042969 104.52958984 109.88632812 104.43613281 109.109375 104.33984375 C108.41811523 104.25081787 107.72685547 104.16179199 107.01464844 104.07006836 C104.97866716 103.90636183 104.97866716 103.90636183 102.97753906 104.50610352 C99.89475554 105.27603822 97.08989752 104.53478996 94 104 C93.67 104.66 93.34 105.32 93 106 C91.824375 105.855625 90.64875 105.71125 89.4375 105.5625 C88.34501953 105.42908203 88.34501953 105.42908203 87.23046875 105.29296875 C85.23080778 105.03031626 83.23939548 104.70656591 81.25 104.375 C78.23628509 104.02726366 76.81428695 104.18294895 74 105 C72 105 70 105 68 105 C67.01 105.495 67.01 105.495 66 106 C64.11515056 105.75378093 62.23977913 105.43111913 60.375 105.0625 C59.37210938 104.86785156 58.36921875 104.67320312 57.3359375 104.47265625 C56.17964844 104.23869141 56.17964844 104.23869141 55 104 C54.67 104.66 54.34 105.32 54 106 C51.03 105.505 51.03 105.505 48 105 C48.16242187 105.95261719 48.32484375 106.90523438 48.4921875 107.88671875 C49.15380727 112.52857757 49.14658774 117.13155878 49.125 121.8125 C49.13080078 123.09930664 49.13080078 123.09930664 49.13671875 124.41210938 C49.13542969 125.23130859 49.13414062 126.05050781 49.1328125 126.89453125 C49.13168457 127.63550049 49.13055664 128.37646973 49.12939453 129.13989258 C49 131 49 131 48 133 C48.66 133 49.32 133 50 133 C50 134.32 50 135.64 50 137 C51.74906659 137.19601608 53.49931846 137.38147403 55.25 137.5625 C56.22453125 137.66691406 57.1990625 137.77132812 58.203125 137.87890625 C60.85612938 138.13641253 60.85612938 138.13641253 62.77349854 137.5146637 C65.6956568 136.83919647 68.42134222 136.88066152 71.42089844 136.88647461 C72.72194519 136.88655014 74.02299194 136.88662567 75.36346436 136.88670349 C76.77876829 136.89180976 78.19407184 136.89702575 79.609375 136.90234375 C81.06097363 136.90420965 82.51257288 136.90563274 83.96417236 136.90663147 C87.77819569 136.91044312 91.59218073 136.92026185 95.40618896 136.93133545 C99.30073529 136.94157865 103.19528783 136.94613532 107.08984375 136.95117188 C114.72657993 136.96188535 122.36328459 136.97894551 130 137 C130.16526968 139.54964112 130.32893724 142.09936849 130.49169922 144.64916992 C130.53828171 145.36526176 130.5848642 146.08135361 130.63285828 146.8191452 C130.98218619 152.32051869 131.15310444 157.79934573 131.125 163.3125 C131.12886719 164.12138672 131.13273438 164.93027344 131.13671875 165.76367188 C131.13118053 169.09490954 131.06056661 171.81830017 130 175 C126.10495889 175.06833405 122.56907147 175.09270249 118.71484375 174.46484375 C114.75768416 173.96967867 111.07220294 174.14609316 107.125 174.5 C101.24509624 174.96138179 95.83820963 174.80527029 90 174 C89.34 174.33 88.68 174.66 88 175 C85.64305046 174.90968426 83.28846418 174.75311872 80.9375 174.5625 C70.85097876 173.48137439 70.85097876 173.48137439 61 175 C58.99703237 174.93879821 56.99571287 174.80598377 55 174.625 C53.948125 174.53476563 52.89625 174.44453125 51.8125 174.3515625 C49 174 49 174 46 173 C45.67 173.66 45.34 174.32 45 175 C42.03 174.34 39.06 173.68 36 173 C36 173.66 36 174.32 36 175 C34.95199219 174.91621094 33.90398438 174.83242187 32.82421875 174.74609375 C31.44533619 174.64291206 30.06642857 174.54006494 28.6875 174.4375 C27.99720703 174.38142578 27.30691406 174.32535156 26.59570312 174.26757812 C23.37487726 174.03418495 21.09672655 173.96775782 18 175 C15.69434159 174.8329233 13.44293934 174.4916311 11.15625 174.15625 C8.81615906 173.84796578 8.81615906 173.84796578 6 175 C3.6593935 174.72230092 1.32375692 174.39460023 -1 174 C-2.0069121 169.83706179 -2.11491641 165.94749541 -2.09765625 161.67114258 C-2.09619598 160.95186081 -2.09473572 160.23257904 -2.0932312 159.49150085 C-2.08943874 157.93698751 -2.08333656 156.38247844 -2.07516479 154.82798195 C-2.06237057 152.36966206 -2.05587826 149.91139629 -2.05102539 147.45304871 C-2.03961719 142.2395081 -2.02035827 137.02601233 -2 131.8125 C-1.97641957 125.76051343 -1.95603557 119.708552 -1.94406128 113.65653038 C-1.93756489 111.23125708 -1.92506012 108.80606118 -1.91235352 106.3808136 C-1.90872255 104.9007677 -1.90537062 103.42072108 -1.90234375 101.94067383 C-1.89448853 99.99805412 -1.89448853 99.99805412 -1.88647461 98.01618958 C-1.7890445 95.07753107 -1.7890445 95.07753107 -3 93 C-2.68527893 90.66408343 -2.34884301 88.33106502 -2 86 C-1.91308828 83.6661771 -1.87217155 81.33031316 -1.87060547 78.99487305 C-1.86885315 78.33382065 -1.86710083 77.67276825 -1.86529541 76.99168396 C-1.86093459 74.83166796 -1.86379264 72.67173541 -1.8671875 70.51171875 C-1.8665132 69.00193771 -1.86554213 67.49215677 -1.86428833 65.9823761 C-1.86281954 62.83125771 -1.86494103 59.6801678 -1.86962891 56.52905273 C-1.8753503 52.48597058 -1.87202687 48.44295447 -1.86605644 44.39987469 C-1.86244959 41.28843179 -1.86358956 38.17700466 -1.86618423 35.06556129 C-1.86685189 33.57398279 -1.86603069 32.08240287 -1.86370468 30.59082603 C-1.86117349 28.51322987 -1.86502422 26.43574234 -1.87060547 24.3581543 C-1.87140106 23.17569626 -1.87219666 21.99323822 -1.87301636 20.77494812 C-1.80998732 18.04180933 -1.80998732 18.04180933 -3 16 C-2.73073296 13.30732957 -2.40713894 10.67122865 -2 8 C-1.7525 6.329375 -1.7525 6.329375 -1.5 4.625 C-1 2 -1 2 0 0 Z " fill="#6955A5" transform="translate(653,29)"/>
<path d="M0 0 C1.75032844 0.14183696 3.50025534 0.28863429 5.25 0.4375 C6.71179688 0.55931641 6.71179688 0.55931641 8.203125 0.68359375 C10.56461753 0.95074584 12.71901065 1.35371968 15 2 C15.33 1.34 15.66 0.68 16 0 C19.3 0.66 22.6 1.32 26 2 C26 1.34 26 0.68 26 0 C27.7015625 0.10828125 27.7015625 0.10828125 29.4375 0.21875 C30.95832543 0.31262811 32.47915922 0.40637087 34 0.5 C35.11568359 0.57154297 35.11568359 0.57154297 36.25390625 0.64453125 C39.97069716 0.8707707 43.65086576 1.01649531 47.375 0.96875 C51 1 51 1 54 2 C54.33 1.34 54.66 0.68 55 0 C74.1 -0.3 74.1 -0.3 81 2 C81.33 1.34 81.66 0.68 82 0 C82.61488281 0.08378906 83.22976563 0.16757812 83.86328125 0.25390625 C84.67152344 0.35574219 85.47976563 0.45757813 86.3125 0.5625 C87.11300781 0.66691406 87.91351563 0.77132813 88.73828125 0.87890625 C91.16817116 1.14755178 91.16817116 1.14755178 94 0 C95.98828125 0.12109375 95.98828125 0.12109375 98.3125 0.4375 C109.7850703 1.79537177 109.7850703 1.79537177 121 0 C123.1875 0.9375 123.1875 0.9375 125 2 C125.02689449 4.95839355 125.04678741 7.91654427 125.0625 10.875 C125.07087891 11.71675781 125.07925781 12.55851562 125.08789062 13.42578125 C125.09111328 14.23144531 125.09433594 15.03710938 125.09765625 15.8671875 C125.10289307 16.61081543 125.10812988 17.35444336 125.11352539 18.12060547 C125 20 125 20 124 22 C124.66 22.33 125.32 22.66 126 23 C125.91621094 23.69867188 125.83242188 24.39734375 125.74609375 25.1171875 C125.59333984 26.48230469 125.59333984 26.48230469 125.4375 27.875 C125.33308594 28.77992187 125.22867188 29.68484375 125.12109375 30.6171875 C124.80325148 33.01653057 124.80325148 33.01653057 126 35 C125.34 35.99 124.68 36.98 124 38 C123.01 37.67 122.02 37.34 121 37 C120.67 37.66 120.34 38.32 120 39 C118.906875 38.835 117.81375 38.67 116.6875 38.5 C112.31730514 37.94210278 108.03155745 37.98223891 103.6328125 38.03125 C100.33079201 37.99205688 97.24722034 37.57728362 94 37 C93.505 37.99 93.505 37.99 93 39 C89.37 38.34 85.74 37.68 82 37 C81.505 37.99 81.505 37.99 81 39 C80.48646973 38.83628906 79.97293945 38.67257813 79.44384766 38.50390625 C76.22218938 37.83962027 73.18782954 37.90733362 69.8984375 37.9375 C69.22076324 37.94128662 68.54308899 37.94507324 67.84487915 37.94897461 C65.68818702 37.96115422 63.53163093 37.97979061 61.375 38 C58.52864957 38.02654234 55.68236474 38.04655006 52.8359375 38.0625 C50.94174072 38.07990234 50.94174072 38.07990234 49.00927734 38.09765625 C46 38 46 38 44 37 C43.90912109 38.15628906 43.90912109 38.15628906 43.81640625 39.3359375 C43.73261719 40.33882812 43.64882813 41.34171875 43.5625 42.375 C43.48128906 43.37273437 43.40007812 44.37046875 43.31640625 45.3984375 C43 48 43 48 42 50 C42.66 50 43.32 50 44 50 C43.9278125 51.19238281 43.855625 52.38476562 43.78125 53.61328125 C43.68745339 55.17968471 43.59370595 56.74609111 43.5 58.3125 C43.45230469 59.09818359 43.40460938 59.88386719 43.35546875 60.69335938 C43.31035156 61.45068359 43.26523437 62.20800781 43.21875 62.98828125 C43.1559082 64.03302612 43.1559082 64.03302612 43.09179688 65.09887695 C43.01299029 66.73096966 43 68.36600579 43 70 C43.66 70 44.32 70 45 70 C45.33 69.34 45.66 68.68 46 68 C46.92232422 68.12568359 46.92232422 68.12568359 47.86328125 68.25390625 C48.67152344 68.35574219 49.47976563 68.45757812 50.3125 68.5625 C51.11300781 68.66691406 51.91351563 68.77132812 52.73828125 68.87890625 C55.16817116 69.14755178 55.16817116 69.14755178 58 68 C60.49782395 68.169344 62.94894369 68.50994961 65.4296875 68.84375 C67.99843886 69.1154755 67.99843886 69.1154755 70.45703125 68.47265625 C73.51568313 67.90415106 75.77510579 68.31538311 78.8125 68.9375 C79.78832031 69.13214844 80.76414062 69.32679687 81.76953125 69.52734375 C82.87361328 69.76130859 82.87361328 69.76130859 84 70 C84.33 69.34 84.66 68.68 85 68 C88.3 68.66 91.6 69.32 95 70 C95.33 69.34 95.66 68.68 96 68 C97.19625 68.165 98.3925 68.33 99.625 68.5 C105.96609315 69.46958371 105.96609315 69.46958371 112 68 C114.00800456 68.28112064 116.01014051 68.61067967 118 69 C117.67 70.98 117.34 72.96 117 75 C117.66 75.33 118.32 75.66 119 76 C118.34 79.63 117.68 83.26 117 87 C117.66 87 118.32 87 119 87 C118.88521587 89.06309376 118.75773802 91.12548354 118.625 93.1875 C118.55539062 94.33605469 118.48578125 95.48460938 118.4140625 96.66796875 C118.02490426 99.79959117 117.3190149 102.15285809 116 105 C113.36 104.67 110.72 104.34 108 104 C107.67 104.66 107.34 105.32 107 106 C105.22880197 105.85866501 103.45804713 105.71176792 101.6875 105.5625 C100.20830078 105.44068359 100.20830078 105.44068359 98.69921875 105.31640625 C96 105 96 105 93 104 C92.67 104.66 92.34 105.32 92 106 C88.7 105.34 85.4 104.68 82 104 C82 104.66 82 105.32 82 106 C80.88882813 105.9278125 79.77765625 105.855625 78.6328125 105.78125 C65.47700758 103.9597968 65.47700758 103.9597968 53 106 C51.45386986 105.91348369 49.91090613 105.75997364 48.375 105.5625 C47.14910156 105.40974609 47.14910156 105.40974609 45.8984375 105.25390625 C45.27195312 105.17011719 44.64546875 105.08632812 44 105 C43.16529792 107.8980429 42.89128783 110.43023406 42.9375 113.44140625 C42.94910156 114.68760742 42.94910156 114.68760742 42.9609375 115.95898438 C42.97382813 116.81814453 42.98671875 117.67730469 43 118.5625 C43.02553505 120.27207166 43.04655885 121.98171822 43.0625 123.69140625 C43.07410156 124.44623291 43.08570313 125.20105957 43.09765625 125.97875977 C43 128 43 128 42 131 C42.66 131 43.32 131 44 131 C43.505 133.97 43.505 133.97 43 137 C44.08418213 136.99476318 45.16836426 136.98952637 46.28540039 136.98413086 C50.3314531 136.96594667 54.37750223 136.95451917 58.42358398 136.94506836 C60.17033497 136.94005871 61.9170818 136.93324915 63.66381836 136.92456055 C66.18344146 136.91234681 68.70300881 136.90673787 71.22265625 136.90234375 C72.3824575 136.89460182 72.3824575 136.89460182 73.56568909 136.88670349 C78.14104878 136.88623664 82.46557305 137.31095728 87 138 C88.34226943 137.70470073 89.67606129 137.36888369 91 137 C93.5950654 136.90451058 96.1560184 136.85852362 98.75 136.875 C99.46502686 136.8762085 100.18005371 136.87741699 100.91674805 136.87866211 C104.58843059 136.90586596 108.17750141 137.03933198 111.8125 137.5625 C115.01343771 138.24123881 115.01343771 138.24123881 118 137 C120.00875442 137.27571139 122.01178687 137.60235737 124 138 C124.93480311 144.54362176 125.07794765 150.90736898 124.96289062 157.50195312 C124.92360543 160.62965937 125.00200029 163.00600086 126 166 C125.83988879 168.70123106 125.39559392 171.31875231 125 174 C117.38484067 174.89186551 110.24689865 174.96130345 102.6171875 174.15625 C100.01882635 173.78236914 100.01882635 173.78236914 98 175 C95.98042277 174.73940939 93.96102183 174.47649059 91.9453125 174.1875 C89.97398891 173.88803644 89.97398891 173.88803644 88 174.5 C85.73062168 175.06734458 84.24276488 174.83470271 81.9375 174.5 C78.10472515 173.7244157 78.10472515 173.7244157 75 175 C72.44483377 175.12345185 69.93011769 175.1898463 67.375 175.1875 C66.66021484 175.18814453 65.94542969 175.18878906 65.20898438 175.18945312 C59.88943316 175.1364023 55.1336185 174.46674814 50 173 C50 173.66 50 174.32 50 175 C32.22069928 175.17261457 32.22069928 175.17261457 26.5 174.4375 C23.15600943 173.6908702 23.15600943 173.6908702 21 175 C18.48641902 175.12626633 16.01395185 175.18979375 13.5 175.1875 C12.78328125 175.18814453 12.0665625 175.18878906 11.328125 175.18945312 C5.71209453 175.13389887 0.4361033 174.46356627 -5 173 C-5.495 173.99 -5.495 173.99 -6 175 C-6.66 174.67 -7.32 174.34 -8 174 C-8.02486464 168.87711941 -8.04293752 163.75427458 -8.05493164 158.63134766 C-8.05993604 156.89143257 -8.06674159 155.15152164 -8.07543945 153.41162109 C-8.08767662 150.89940358 -8.09326739 148.38724206 -8.09765625 145.875 C-8.10281754 145.10696045 -8.10797882 144.3389209 -8.11329651 143.54760742 C-8.11367396 139.8487888 -7.95190773 136.29764619 -7.43139648 132.6328125 C-6.74503864 129.05506483 -6.74503864 129.05506483 -8 126 C-8.0957004 123.67863334 -8.13073915 121.35458757 -8.1328125 119.03125 C-8.13376923 118.35453247 -8.13472595 117.67781494 -8.13571167 116.98059082 C-8.13639132 115.55167549 -8.13455201 114.12275704 -8.13037109 112.69384766 C-8.12501975 110.5080674 -8.13032328 108.32249262 -8.13671875 106.13671875 C-8.13605793 104.74739538 -8.13477669 103.35807214 -8.1328125 101.96875 C-8.13168457 100.70482422 -8.13055664 99.44089844 -8.12939453 98.13867188 C-8 95 -8 95 -7 92 C-7.66 91.67 -8.32 91.34 -9 91 C-8.75443359 90.20287598 -8.75443359 90.20287598 -8.50390625 89.38964844 C-7.88583514 86.45860193 -7.90593403 83.7617616 -7.9375 80.765625 C-7.94523437 79.55132812 -7.95296875 78.33703125 -7.9609375 77.0859375 C-7.98682007 74.54426921 -8.01285977 72.00260251 -8.0390625 69.4609375 C-8.10550698 58.98485792 -8.10550698 58.98485792 -7.4375 54.484375 C-6.99265598 50.94151012 -7.40927308 48.49475441 -8 45 C-8.21507008 40.39750032 -8.18511416 35.79456518 -8.1875 31.1875 C-8.19974609 29.95451172 -8.21199219 28.72152344 -8.22460938 27.45117188 C-8.23552678 20.6350743 -7.79997633 14.58094112 -6 8 C-6.66 8 -7.32 8 -8 8 C-7.67 6.02 -7.34 4.04 -7 2 C-3.98968256 1.06576355 -3.13349732 0.95550089 0 2 C0 1.34 0 0.68 0 0 Z M-7 35 C-6 37 -6 37 -6 37 Z M-7 139 C-6 141 -6 141 -6 141 Z M-7 155 C-6 157 -6 157 -6 157 Z " fill="#6955A5" transform="translate(349,29)"/>
<path d="M0 0 C0.69867188 0.08378906 1.39734375 0.16757812 2.1171875 0.25390625 C3.02726562 0.35574219 3.93734375 0.45757813 4.875 0.5625 C5.77992188 0.66691406 6.68484375 0.77132813 7.6171875 0.87890625 C10.01653057 1.19674852 10.01653057 1.19674852 12 0 C15.61627557 0.17726841 19.20672307 0.51863897 22.8125 0.84375 C25.89649605 1.25611412 25.89649605 1.25611412 28 0 C30.3828125 0.33984375 30.3828125 0.33984375 33.125 0.9375 C34.49011719 1.22947266 34.49011719 1.22947266 35.8828125 1.52734375 C36.58148438 1.68332031 37.28015625 1.83929687 38 2 C38.33 1.34 38.66 0.68 39 0 C43.95 0.99 43.95 0.99 49 2 C48.91621094 2.97582031 48.83242188 3.95164063 48.74609375 4.95703125 C48.64425781 6.22933594 48.54242188 7.50164063 48.4375 8.8125 C48.33308594 10.07707031 48.22867188 11.34164062 48.12109375 12.64453125 C47.80402822 15.99581184 47.80402822 15.99581184 49 19 C48.83469679 21.04975976 48.49420753 23.03475483 48.15625 25.0625 C47.85518707 27.21800052 47.85518707 27.21800052 49 30 C48.93892588 32.02377427 48.80631892 34.04593961 48.625 36.0625 C48.48964844 37.65771484 48.48964844 37.65771484 48.3515625 39.28515625 C48 42 48 42 47 44 C47.66 44 48.32 44 49 44 C48.814375 45.010625 48.62875 46.02125 48.4375 47.0625 C47.8415487 50.93199934 47.8415487 50.93199934 48.5 54.5 C49.03807238 58.26650665 48.56457842 61.25966795 48 65 C48.24363281 65.90298828 48.24363281 65.90298828 48.4921875 66.82421875 C49.16321304 69.69930511 48.8917405 72.19085449 48.625 75.125 C48.53476562 76.17945312 48.44453125 77.23390625 48.3515625 78.3203125 C48 81 48 81 47 83 C47.99 83.495 47.99 83.495 49 84 C48.814375 84.86625 48.62875 85.7325 48.4375 86.625 C47.83842922 89.91028064 47.83842922 89.91028064 48.50390625 92.7890625 C49.04287925 96.27753342 48.85539643 99.2444989 48.5 102.75 C47.87282378 107.02699114 47.87282378 107.02699114 49 111 C49.09661066 112.67227592 49.13075577 114.34837447 49.1328125 116.0234375 C49.13559204 117.54771362 49.13559204 117.54771362 49.13842773 119.1027832 C49.13399658 120.18261475 49.12956543 121.26244629 49.125 122.375 C49.1237915 123.46449951 49.12258301 124.55399902 49.12133789 125.67651367 C49.08989085 132.14637882 48.89919171 138.49926844 48.12109375 144.92578125 C47.85977606 147.19762921 47.85977606 147.19762921 49 150 C49.40404658 157.70065251 48.84353109 165.347968 48 173 C47.34 173 46.68 173 46 173 C46 173.66 46 174.32 46 175 C44.80375 174.814375 43.6075 174.62875 42.375 174.4375 C39.70371759 174.09717955 37.86954522 174.02319196 35.1875 174.5 C29.51014884 175.39056489 23.45075282 174.81691761 18 173 C17.67 173.66 17.34 174.32 17 175 C13.7 174.34 10.4 173.68 7 173 C7 173.66 7 174.32 7 175 C2.9715651 175.18311068 0.51624755 174.94158017 -3 173 C-2.91621094 172.33613281 -2.83242188 171.67226562 -2.74609375 170.98828125 C-2.64425781 170.10527344 -2.54242188 169.22226563 -2.4375 168.3125 C-2.33308594 167.44238281 -2.22867187 166.57226562 -2.12109375 165.67578125 C-1.89328579 163.01719441 -1.89328579 163.01719441 -2.49609375 160.5234375 C-3.07315802 157.63364276 -2.9204494 155.23904609 -2.625 152.3125 C-2.53476562 151.35988281 -2.44453125 150.40726563 -2.3515625 149.42578125 C-2 147 -2 147 -1 145 C-1.66 145 -2.32 145 -3 145 C-2.87431641 143.98679688 -2.87431641 143.98679688 -2.74609375 142.953125 C-2.64425781 142.06109375 -2.54242188 141.1690625 -2.4375 140.25 C-2.33308594 139.36828125 -2.22867187 138.4865625 -2.12109375 137.578125 C-2.00396638 135.08444561 -2.38028965 133.38612883 -3 131 C-2.74074577 129.02318649 -2.47915161 127.04651278 -2.1875 125.07421875 C-1.89786111 122.75676122 -1.89786111 122.75676122 -2.5 119.5 C-2.92462189 116.52764675 -2.92681801 114.69885681 -2.5 111.8125 C-1.79185193 108.30069249 -1.79185193 108.30069249 -2.5 106.140625 C-3.1669152 103.2853943 -2.81703298 100.84483655 -2.5 97.9375 C-1.99257348 93.39951216 -1.99257348 93.39951216 -3 89 C-3.09338052 87.36795513 -3.13069676 85.73236904 -3.1328125 84.09765625 C-3.13466553 83.12997314 -3.13651855 82.16229004 -3.13842773 81.1652832 C-3.13399658 80.14136475 -3.12956543 79.11744629 -3.125 78.0625 C-3.12318726 76.50438599 -3.12318726 76.50438599 -3.12133789 74.91479492 C-3.08932447 68.6248961 -2.8797749 62.45444271 -2.12109375 56.20703125 C-1.99436815 53.89735502 -2.42512867 52.22253405 -3 50 C-2.66666667 47.66666667 -2.33333333 45.33333333 -2 43 C-2.24363281 42.09121094 -2.24363281 42.09121094 -2.4921875 41.1640625 C-3.165632 38.29415285 -2.89131539 35.80446933 -2.625 32.875 C-2.48964844 31.29332031 -2.48964844 31.29332031 -2.3515625 29.6796875 C-2 27 -2 27 -1 25 C-1.66 24.67 -2.32 24.34 -3 24 C-2.91621094 23.38511719 -2.83242188 22.77023438 -2.74609375 22.13671875 C-2.64425781 21.32847656 -2.54242188 20.52023438 -2.4375 19.6875 C-2.33308594 18.88699219 -2.22867187 18.08648437 -2.12109375 17.26171875 C-1.85244822 14.83182884 -1.85244822 14.83182884 -3 12 C-2.6953125 9.58984375 -2.6953125 9.58984375 -2.125 6.9375 C-1.94195312 6.05964844 -1.75890625 5.18179688 -1.5703125 4.27734375 C-1 2 -1 2 0 0 Z M47 53 C48 55 48 55 48 55 Z M47 158 C48 160 48 160 48 160 Z " fill="#6955A5" transform="translate(272,29)"/>
<path d="M0 0 C0.66 0 1.32 0 2 0 C16.02073188 33.86084011 16.02073188 33.86084011 20.375 45 C20.6541626 45.70882324 20.9333252 46.41764648 21.22094727 47.14794922 C23 51.75082997 23 51.75082997 23 54 C23.66 54 24.32 54 25 54 C25.16748245 53.47471207 25.3349649 52.94942413 25.50752258 52.40821838 C27.50741385 46.26067459 29.81306956 40.27136224 32.23046875 34.27734375 C32.8233947 32.79821251 32.8233947 32.79821251 33.42829895 31.28919983 C34.67891925 28.17097788 35.93314761 25.05422227 37.1875 21.9375 C38.04125543 19.81064312 38.89477342 17.68369091 39.74804688 15.55664062 C41.82928734 10.36998844 43.91348403 5.18453201 46 0 C46.66 0 47.32 0 48 0 C51.54585755 16.04808944 55.06236749 32.10252975 58.4375 48.1875 C58.69611816 49.40268311 58.95473633 50.61786621 59.22119141 51.86987305 C59.45628418 52.99949463 59.69137695 54.12911621 59.93359375 55.29296875 C60.2438147 56.77059692 60.2438147 56.77059692 60.56030273 58.27807617 C60.98496514 60.90692745 61.08263108 63.34279018 61 66 C59.35 66 57.7 66 56 66 C52.7 50.49 49.4 34.98 46 19 C44.42631644 21.36052534 43.40112042 23.23207833 42.35180664 25.80957031 C41.8860598 26.94655365 41.8860598 26.94655365 41.41090393 28.10650635 C41.0806572 28.9221405 40.75041046 29.73777466 40.41015625 30.578125 C40.06496445 31.42292419 39.71977264 32.26772339 39.36412048 33.13812256 C38.26047058 35.84082547 37.16134337 38.54533977 36.0625 41.25 C34.9663006 43.93999183 33.86917315 46.62960278 32.77159119 49.31903076 C32.08939828 50.99151138 31.40816322 52.66438313 30.7280426 54.33770752 C28.86574134 58.91314035 26.96074631 63.46584498 25 68 C24.34 68 23.68 68 23 68 C22.76418716 67.41562164 22.52837433 66.83124329 22.28541565 66.22915649 C19.83701811 60.16213699 17.38747428 54.09558123 14.93725586 48.02929688 C14.02224623 45.7634659 13.10753171 43.49751573 12.19311523 41.23144531 C10.88081677 37.97950569 9.56746727 34.7279923 8.25390625 31.4765625 C7.84346573 30.45881744 7.43302521 29.44107239 7.01014709 28.39248657 C6.62982834 27.45166229 6.24950958 26.51083801 5.85766602 25.54150391 C5.52235367 24.71099518 5.18704132 23.88048645 4.84156799 23.02481079 C4.27532363 21.66242806 3.65980594 20.31961188 3 19 C1.24913424 23.8720376 0.12300664 28.73478954 -0.91015625 33.79296875 C-1.08252304 34.62081375 -1.25488983 35.44865875 -1.43247986 36.30158997 C-1.979205 38.92953792 -2.52117239 41.55843537 -3.0625 44.1875 C-3.60802693 46.82713867 -4.15459517 49.46655091 -4.70323181 52.10554504 C-5.04353777 53.74339433 -5.38195666 55.3816371 -5.71827698 57.02030945 C-6.35219892 60.07859689 -7.01130507 63.03391521 -8 66 C-9.65 66 -11.3 66 -13 66 C-12.31721561 58.41154136 -10.87335999 51.09736928 -9.27734375 43.65234375 C-9.01240616 42.39990372 -8.74746857 41.14746368 -8.47450256 39.85707092 C-7.77562129 36.55703507 -7.07303925 33.25783318 -6.36859131 29.95898438 C-5.64816613 26.58074824 -4.9327019 23.20146199 -4.21679688 19.82226562 C-2.81572684 13.21387537 -1.40976162 6.60654123 0 0 Z " fill="#BC3A9C" transform="translate(13,261)"/>
<path d="M0 0 C6.19691268 5.31163944 11.89963096 10.50338197 17.1875 16.6875 C20.29615326 20.30139713 23.61114646 23.65286826 27 27 C30.30553716 30.26504054 33.54647284 33.5232103 36.5625 37.0625 C41.11661929 42.27903664 46.1034575 47.1034575 51 52 C51.33 35.17 51.66 18.34 52 1 C53.98 1 55.96 1 58 1 C58 22.78 58 44.56 58 67 C54.42576955 65.21288477 52.9493434 64.15049875 50.35546875 61.33203125 C49.67806641 60.60306641 49.00066406 59.87410156 48.30273438 59.12304688 C47.60470703 58.36056641 46.90667969 57.59808594 46.1875 56.8125 C44.80707271 55.31800923 43.42557147 53.82450969 42.04296875 52.33203125 C41.36878906 51.60338867 40.69460937 50.87474609 40 50.12402344 C37.54921104 47.52125684 35.02094469 45.00496046 32.48071289 42.48999023 C30.77276571 40.77134198 29.18320704 38.98000838 27.625 37.125 C24.33513551 33.30403631 20.80302492 29.78520577 17.21484375 26.24609375 C14.48497137 23.47770465 11.93516797 20.5837072 9.41015625 17.62890625 C8.32370902 16.37392427 7.17374345 15.17374345 6 14 C5.67 30.83 5.34 47.66 5 65 C3.35 65 1.7 65 0 65 C0 43.55 0 22.1 0 0 Z " fill="#BC3A9C" transform="translate(137,262)"/>
<path d="M0 0 C21 0 21 0 27 3 C31.79284799 8.18145729 32.3280241 12.35345025 32.30078125 19.19140625 C31.86023455 23.30508256 30.3762555 25.65839071 28 29 C28.70576172 29.52787109 28.70576172 29.52787109 29.42578125 30.06640625 C33.85754831 33.58062319 36.36333256 36.41607579 38 42 C38.69624171 48.26617535 37.76124867 52.85302814 34 58 C24.45436303 67.1384771 13.3365258 64 0 64 C0 42.88 0 21.76 0 0 Z M5 5 C5 12.59 5 20.18 5 28 C14.18815962 28.86885723 14.18815962 28.86885723 22.75 26.25 C25.40026509 23.59973491 26.88762186 21.61075334 27.15234375 17.81640625 C26.74090882 13.50007982 26.37821936 11.46550075 23.5625 8 C19.42575323 4.77131959 17.11014056 4.88990781 11.875 4.9375 C8.471875 4.9684375 8.471875 4.9684375 5 5 Z M5 33 C5 41.58 5 50.16 5 59 C17.70604592 59.8409847 17.70604592 59.8409847 29 55 C32.07188644 52.02720667 32.83339177 49.24850977 33 45 C31.61851669 40.92462424 30.31429781 37.77512975 27 35 C20.02425529 32.17648429 12.34592757 33 5 33 Z " fill="#BC3A9C" transform="translate(579,263)"/>
<path d="M0 0 C1.65 0 3.3 0 5 0 C5 23.1 5 46.2 5 70 C3.35 70 1.7 70 0 70 C-0.33 68.68 -0.66 67.36 -1 66 C-1.78375 66.639375 -2.5675 67.27875 -3.375 67.9375 C-8.66444348 71.45129106 -14.66534138 71.38910977 -20.75 70.375 C-25.78905292 68.24309299 -29.01749503 65.6600946 -31.8125 60.9375 C-34.74625309 53.68032131 -35.20336512 46.16720956 -32.109375 38.85546875 C-29.46129591 34.42646323 -25.62118844 31.7430447 -21 29.625 C-14.36340658 28.24237637 -9.00890333 28.98864155 -3 32 C-2.34 32.66 -1.68 33.32 -1 34 C-0.67 22.78 -0.34 11.56 0 0 Z M-25.25 39.375 C-28.61239571 44.41859357 -29.3873134 47.8151429 -28.54296875 53.78515625 C-27.52016741 57.95730273 -25.17885866 60.73381848 -22.3125 63.8125 C-18.11966148 65.96557924 -13.59360597 66.71932041 -9 65.4453125 C-4.7481549 63.3743707 -2.50972865 60.51859962 -0.66015625 56.2109375 C0.90221768 50.97837157 0.87659524 46.1290436 -1.5625 41.1875 C-4.06457279 37.38576396 -6.84189713 35.79228572 -11 34 C-16.93910754 33.15155607 -21.16007368 35.05785555 -25.25 39.375 Z " fill="#BD399C" transform="translate(429,257)"/>
<path d="M0 0 C2.65431489 2.33188531 3.82030373 4.50151399 5.11303711 7.77172852 C5.50031479 8.7402626 5.88759247 9.70879669 6.28660583 10.7066803 C6.69604935 11.75351486 7.10549286 12.80034943 7.52734375 13.87890625 C7.95753311 14.96074692 8.38772247 16.04258759 8.83094788 17.1572113 C10.20710653 20.62279612 11.57244985 24.09252665 12.9375 27.5625 C13.85280049 29.87333026 14.76880818 32.18388054 15.68554688 34.49414062 C17.76017664 39.72563493 19.82941565 44.95919349 21.88668823 50.19754028 C22.6375667 52.08767269 23.40200448 53.9724673 24.1789856 55.85202026 C24.54603607 56.74253082 24.91308655 57.63304138 25.29125977 58.55053711 C25.62045914 59.33730331 25.94965851 60.12406952 26.28883362 60.93467712 C27 63 27 63 27 66 C25.35 66 23.7 66 22 66 C21.22040627 64.37918457 20.45190846 62.75303217 19.6875 61.125 C19.25824219 60.22007812 18.82898438 59.31515625 18.38671875 58.3828125 C16.60611139 54.03913371 15.34894785 49.49649282 14 45 C5.09 45 -3.82 45 -13 45 C-13.99 48.3 -14.98 51.6 -16 55 C-16.84566704 57.06295114 -17.73194749 59.11059201 -18.6875 61.125 C-19.12449219 62.05570312 -19.56148438 62.98640625 -20.01171875 63.9453125 C-20.33785156 64.62335938 -20.66398437 65.30140625 -21 66 C-22.65 66 -24.3 66 -26 66 C-25.39725598 59.91222125 -22.99303975 54.63833565 -20.66796875 49.046875 C-20.23494949 47.99147522 -19.80193024 46.93607544 -19.35578918 45.84869385 C-17.97219514 42.48002697 -16.58005893 39.11496948 -15.1875 35.75 C-14.26178798 33.50154153 -13.33665166 31.25284595 -12.41210938 29.00390625 C-11.10241816 25.81837489 -9.7919493 22.6331939 -8.47685242 19.44989014 C-6.20340793 13.94567334 -3.96981562 8.42990379 -1.80635071 2.88140869 C-1 1 -1 1 0 0 Z M0 13 C-1.67531673 16.93387538 -3.33875803 20.87266263 -5 24.8125 C-5.47695312 25.93205078 -5.95390625 27.05160156 -6.4453125 28.20507812 C-6.89648438 29.27822266 -7.34765625 30.35136719 -7.8125 31.45703125 C-8.23144531 32.44678955 -8.65039062 33.43654785 -9.08203125 34.45629883 C-10.16972572 37.01959994 -10.16972572 37.01959994 -10 40 C-3.07 40 3.86 40 11 40 C10.228603 36.14301498 9.41217319 33.26030444 7.93359375 29.69921875 C7.53076172 28.72275391 7.12792969 27.74628906 6.71289062 26.74023438 C6.29201172 25.73283203 5.87113281 24.72542969 5.4375 23.6875 C5.01275391 22.66076172 4.58800781 21.63402344 4.15039062 20.57617188 C3.10429072 18.04907659 2.05404084 15.52379106 1 13 C0.67 13 0.34 13 0 13 Z " fill="#BD399C" transform="translate(102,261)"/>
<path d="M0 0 C3 2.4375 3 2.4375 5 5 C5 7.25 5 7.25 4 9 C3.01 9.33 2.02 9.66 1 10 C0.443125 9.21625 -0.11375 8.4325 -0.6875 7.625 C-3.19331573 4.78056053 -4.33877302 3.83209704 -8 3 C-12.2078134 2.93280937 -15.09628313 3.28166095 -18.4375 5.9375 C-21.08038926 9.42611383 -21.42953095 11.61878433 -21 16 C-17.7850583 21.36702016 -12.99038055 23.36630511 -7.5625 26 C5.081571 32.16314199 5.081571 32.16314199 8 38 C8.50239048 43.50158755 8.76205731 48.38795569 6.375 53.4375 C1.70232354 58.47907197 -2.07536001 61.84589333 -9 63 C-15.68579287 63.0862683 -20.6216327 62.00741093 -26 58 C-28.02042683 55.84420958 -29.84802954 53.73592984 -31 51 C-30.625 48.78125 -30.625 48.78125 -30 47 C-28.02 46.505 -28.02 46.505 -26 46 C-25.72027344 46.54269531 -25.44054687 47.08539063 -25.15234375 47.64453125 C-23.00203469 51.4818995 -21.4883713 53.69591975 -17.6875 56.0625 C-12.78179103 57.30971414 -8.70448673 57.60597557 -4.23046875 54.94921875 C-0.11677735 51.71631772 1.72276069 49.17170796 2.375 44.0625 C1.8818743 40.03530682 0.85596343 38.91179429 -2 36 C-6.06022757 33.44648292 -10.36918363 31.35513863 -14.64648438 29.19335938 C-19.95454045 26.41520085 -23.76561279 24.11945951 -27 19 C-28.0655985 14.24241612 -27.93033212 9.33607626 -26.11328125 4.7734375 C-20.04528455 -4.70150752 -9.07412095 -4.96508505 0 0 Z " fill="#BC3A9C" transform="translate(321,265)"/>
<path d="M0 0 C0.66 0.66 1.32 1.32 2 2 C2.33 0.68 2.66 -0.64 3 -2 C4.65 -2 6.3 -2 8 -2 C8 11.2 8 24.4 8 38 C6.35 38 4.7 38 3 38 C2.505 36.02 2.505 36.02 2 34 C1.01 34.639375 0.02 35.27875 -1 35.9375 C-6.271633 38.91804099 -11.19411551 39.54987997 -17.125 38.375 C-22.35192779 36.84491701 -25.6627421 33.89060599 -28.8125 29.4375 C-31.74215669 23.42399415 -32.20750665 16.09862259 -30.31640625 9.6796875 C-27.64956607 3.85911516 -23.9528943 0.31937831 -18.0625 -2.3125 C-11.41820232 -3.80407703 -6.02610126 -3.01997718 0 0 Z M-23.3125 8.5625 C-26.18623966 12.71345728 -26.33049929 16.04251068 -26 21 C-24.24199417 26.66468544 -22.00862756 29.78691817 -17 33 C-13.03089879 34.28342195 -9.81212235 34.27070745 -5.8125 32.9375 C-1.6167756 30.04711208 1.35541618 26.93375147 3 22 C3.63801091 16.60305525 3.36947694 12.11267636 0.328125 7.5078125 C-3.03075314 3.6944979 -6.59031879 2.19784999 -11.5625 1.5 C-16.86742604 2.27162561 -19.77644272 4.64416626 -23.3125 8.5625 Z " fill="#BF399C" transform="translate(679,289)"/>
<path d="M0 0 C3.82847296 3.21939772 6.24976181 6.30199222 8 11 C8 13.64 8 16.28 8 19 C-2.89 19 -13.78 19 -25 19 C-23.68 21.97 -22.36 24.94 -21 28 C-21 28.66 -21 29.32 -21 30 C-16.14084908 32.35120206 -10.24734567 34.10534651 -4.96875 32.30859375 C-1.52790546 30.44966291 0.97241544 28.33955105 3 25 C4.32 25.66 5.64 26.32 7 27 C5.65180203 31.71869288 3.06690793 34.41709081 -1 37 C-6.69328384 39.40869701 -12.06679191 39.55990447 -18 38 C-23.72256769 35.25159699 -27.1518115 31.33714439 -29.375 25.421875 C-31.17286468 18.45514936 -30.4874902 12.39760371 -27.265625 5.9765625 C-20.9991792 -3.80992384 -9.8142861 -5.27063513 0 0 Z M-21 6 C-22.32 8.64 -23.64 11.28 -25 14 C-15.76 14 -6.52 14 3 14 C1.14722488 8.44167465 -0.03143615 5.77008427 -5 3 C-10.71926477 0.96753401 -16.46029063 1.87039043 -21 6 Z " fill="#BF399C" transform="translate(473,289)"/>
<path d="M0 0 C1.65 0 3.3 0 5 0 C5.33 10.89 5.66 21.78 6 33 C7.32 32.01 8.64 31.02 10 30 C14.71571999 28.42809334 18.54818499 28.49744865 23.25 30.125 C26.65901526 32.44932859 27.46994713 34.18527163 29 38 C29.34057617 41.61865234 29.34057617 41.61865234 29.29296875 45.5859375 C29.28872391 46.28772125 29.28447906 46.989505 29.28010559 47.71255493 C29.26343599 49.9337756 29.22580872 52.15405788 29.1875 54.375 C29.17243788 55.88930973 29.15875216 57.40363381 29.14648438 58.91796875 C29.11357183 62.61227932 29.06187259 66.30604793 29 70 C27.35 70 25.7 70 24 70 C23.9906543 69.08186523 23.98130859 68.16373047 23.97167969 67.21777344 C23.92760069 63.80294722 23.86596268 60.38936892 23.79248047 56.97509766 C23.76429912 55.49897804 23.74307034 54.02270831 23.72900391 52.54638672 C23.70753302 50.42076943 23.66086957 48.29695121 23.609375 46.171875 C23.58842773 44.8940918 23.56748047 43.61630859 23.54589844 42.29980469 C22.91333153 38.47611314 22.10899384 37.25134037 19 35 C15.3650247 34.54562809 13.00139412 34.51283529 9.6875 36.125 C6.10259546 40.10822727 5.73943559 45.10566856 5.5859375 50.2734375 C5.54726563 51.42714844 5.50859375 52.58085937 5.46875 53.76953125 C5.42234375 55.55423828 5.42234375 55.55423828 5.375 57.375 C5.31699219 59.19451172 5.31699219 59.19451172 5.2578125 61.05078125 C5.16386214 64.03370521 5.07819193 67.01662825 5 70 C3.35 70 1.7 70 0 70 C0 46.9 0 23.8 0 0 Z " fill="#BC3A9C" transform="translate(783,257)"/>
<path d="M0 0 C1.98 0 3.96 0 6 0 C6.02505615 0.8878418 6.0501123 1.77568359 6.07592773 2.69042969 C6.17121797 5.99296037 6.27044207 9.29532459 6.37231445 12.59765625 C6.41555318 14.02534388 6.45723585 15.45307954 6.49731445 16.88085938 C6.55528602 18.93634496 6.61890175 20.99159128 6.68359375 23.046875 C6.72025146 24.28276367 6.75690918 25.51865234 6.79467773 26.79199219 C6.95979819 29.37187658 7.2464387 31.54355106 8 34 C9.58226965 34.19627391 11.16589271 34.38165538 12.75 34.5625 C13.63171875 34.66691406 14.5134375 34.77132812 15.421875 34.87890625 C17.88432451 34.99456676 19.66538064 34.73638695 22 34 C23.11865755 30.35341523 23.20370892 26.8463849 23.31640625 23.046875 C23.33718735 22.38665344 23.35796844 21.72643188 23.37937927 21.04620361 C23.44450147 18.94756985 23.50358502 16.84881628 23.5625 14.75 C23.60572079 13.32290453 23.6493362 11.89582095 23.69335938 10.46875 C23.80014411 6.97929278 23.90151566 3.48970247 24 0 C25.98 0 27.96 0 30 0 C30.05880857 3.95826931 30.09386513 7.91642392 30.125 11.875 C30.14175781 12.98359375 30.15851563 14.0921875 30.17578125 15.234375 C30.27565155 32.21232685 30.27565155 32.21232685 25.5 38.0625 C21.41925625 40.86614057 16.84583091 41.26110658 12 41 C8.13222497 40.1633276 5.51213136 38.48517708 2.625 35.75 C-1.36288366 29.0012738 -0.1162165 20.13652696 -0.0625 12.5625 C-0.05798828 11.35400391 -0.05347656 10.14550781 -0.04882812 8.90039062 C-0.03710145 5.93354211 -0.02068896 2.9667973 0 0 Z " fill="#C0389C" transform="translate(357,287)"/>
<path d="M0 0 C3.17398701 2.38586382 4.746231 5.238693 6 9 C6.08397157 11.35680213 6.10728187 13.71594081 6.09765625 16.07421875 C6.0962413 16.7580513 6.09482635 17.44188385 6.09336853 18.1464386 C6.08777876 20.32683722 6.07522822 22.50713251 6.0625 24.6875 C6.05748367 26.16731622 6.052921 27.64713406 6.04882812 29.12695312 C6.03781271 32.75133557 6.02055512 36.3756577 6 40 C4.35 40 2.7 40 1 40 C0.97494385 39.1121582 0.9498877 38.22431641 0.92407227 37.30957031 C0.82878203 34.00703963 0.72955793 30.70467541 0.62768555 27.40234375 C0.58444682 25.97465612 0.54276415 24.54692046 0.50268555 23.11914062 C0.44471398 21.06365504 0.38109825 19.00840872 0.31640625 16.953125 C0.27974854 15.71723633 0.24309082 14.48134766 0.20532227 13.20800781 C0.04020181 10.62812342 -0.2464387 8.45644894 -1 6 C-4.35814564 5.34141222 -7.57282709 4.86899186 -11 5 C-14.3885413 7.48954055 -15.67651025 9.02953076 -17 13 C-17.15029988 15.06362991 -17.24844448 17.13123915 -17.31640625 19.19921875 C-17.35830078 20.40771484 -17.40019531 21.61621094 -17.44335938 22.86132812 C-17.48267578 24.12396484 -17.52199219 25.38660156 -17.5625 26.6875 C-17.62727539 28.59885742 -17.62727539 28.59885742 -17.69335938 30.54882812 C-17.7995486 33.69910852 -17.90159533 36.84946839 -18 40 C-19.65 40 -21.3 40 -23 40 C-23 26.8 -23 13.6 -23 0 C-21.35 0 -19.7 0 -18 0 C-17.67 0.99 -17.34 1.98 -17 3 C-16.401875 2.525625 -15.80375 2.05125 -15.1875 1.5625 C-10.44079194 -1.82800576 -5.4537982 -1.43521005 0 0 Z " fill="#BF399C" transform="translate(514,287)"/>
<path d="M0 0 C3.17398701 2.38586382 4.746231 5.238693 6 9 C6.08397157 11.35680213 6.10728187 13.71594081 6.09765625 16.07421875 C6.0962413 16.7580513 6.09482635 17.44188385 6.09336853 18.1464386 C6.08777876 20.32683722 6.07522822 22.50713251 6.0625 24.6875 C6.05748367 26.16731622 6.052921 27.64713406 6.04882812 29.12695312 C6.03781271 32.75133557 6.02055512 36.3756577 6 40 C4.35 40 2.7 40 1 40 C0.98018066 39.1121582 0.96036133 38.22431641 0.93994141 37.30957031 C0.86171768 34.00688666 0.77502115 30.70464936 0.68261719 27.40234375 C0.64439976 25.97469602 0.60953428 24.54695437 0.578125 23.11914062 C0.53231599 21.06346132 0.4743502 19.00842446 0.4140625 16.953125 C0.36693115 15.09929199 0.36693115 15.09929199 0.31884766 13.20800781 C0.02118723 10.21317018 -0.33196569 8.47055815 -2 6 C-5.13871188 4.43064406 -7.53855822 4.64798897 -11 5 C-14.15954305 7.54137159 -15.71540886 9.14622659 -17 13 C-17.15029988 15.06362991 -17.24844448 17.13123915 -17.31640625 19.19921875 C-17.35830078 20.40771484 -17.40019531 21.61621094 -17.44335938 22.86132812 C-17.48267578 24.12396484 -17.52199219 25.38660156 -17.5625 26.6875 C-17.62727539 28.59885742 -17.62727539 28.59885742 -17.69335938 30.54882812 C-17.7995486 33.69910852 -17.90159533 36.84946839 -18 40 C-19.65 40 -21.3 40 -23 40 C-23 26.8 -23 13.6 -23 0 C-21.35 0 -19.7 0 -18 0 C-17.67 0.99 -17.34 1.98 -17 3 C-16.401875 2.525625 -15.80375 2.05125 -15.1875 1.5625 C-10.44079194 -1.82800576 -5.4537982 -1.43521005 0 0 Z " fill="#BF399C" transform="translate(723,287)"/>
<path d="M0 0 C12.54 0 25.08 0 38 0 C38 1.65 38 3.3 38 5 C32.39 5 26.78 5 21 5 C21 24.47 21 43.94 21 64 C19.35 64 17.7 64 16 64 C16 44.53 16 25.06 16 5 C10.72 5 5.44 5 0 5 C0 3.35 0 1.7 0 0 Z " fill="#B83B9D" transform="translate(221,263)"/>
<path d="M0 0 C2 2 2 2 2.125 5.125 C2.08375 6.07375 2.0425 7.0225 2 8 C-0.76341403 6.94340052 -3.29351095 5.83410251 -5.875 4.375 C-9.64102341 2.7179497 -11.91768521 2.4986631 -16 3 C-21.34633619 5.17478082 -24.09451244 7.45427539 -26.41015625 12.78125 C-27.72316998 17.72026854 -26.70830208 22.12508274 -24.9375 26.8125 C-21.71192527 30.45427793 -17.83263857 32.77762464 -12.91015625 33.1640625 C-8.03088149 32.77072365 -4.94057792 30.9325231 -1 28 C-0.01 27.67 0.98 27.34 2 27 C2 29.31 2 31.62 2 34 C-4.12267993 38.03836336 -9.1949826 39.63282006 -16.55078125 38.6640625 C-23.37582994 37.06913458 -27.18364871 33.80797486 -31 28 C-33.75906622 22.36190815 -34.0666692 16.33396141 -32.16015625 10.375 C-29.44466324 4.23085419 -26.20638 0.65282644 -20 -2 C-12.66587677 -4.20735748 -6.80634416 -3.05111979 0 0 Z " fill="#BF399C" transform="translate(771,289)"/>
<path d="M0 0 C1.65 0 3.3 0 5 0 C5 4.62 5 9.24 5 14 C7.31 14 9.62 14 12 14 C12 15.65 12 17.3 12 19 C9.69 19 7.38 19 5 19 C5 30.55 5 42.1 5 54 C3.35 54 1.7 54 0 54 C0 42.45 0 30.9 0 19 C-1.32 19 -2.64 19 -4 19 C-4 17.35 -4 15.7 -4 14 C-2.68 14 -1.36 14 0 14 C0 9.38 0 4.76 0 0 Z " fill="#BD399C" transform="translate(533,273)"/>
<path d="M0 0 C1.65 0 3.3 0 5 0 C5 4.62 5 9.24 5 14 C6.98 14 8.96 14 11 14 C11 15.65 11 17.3 11 19 C9.02 19 7.04 19 5 19 C5 30.55 5 42.1 5 54 C3.35 54 1.7 54 0 54 C0 42.45 0 30.9 0 19 C-1.65 19 -3.3 19 -5 19 C-5 17.35 -5 15.7 -5 14 C-3.35 14 -1.7 14 0 14 C0 9.38 0 4.76 0 0 Z " fill="#BD399C" transform="translate(340,273)"/>
<path d="M0 0 C1.65 0 3.3 0 5 0 C5 21.12 5 42.24 5 64 C3.35 64 1.7 64 0 64 C0 42.88 0 21.76 0 0 Z " fill="#BC3A9C" transform="translate(208,263)"/>
<path d="M0 0 C0.66 0.33 1.32 0.66 2 1 C1.34 2.65 0.68 4.3 0 6 C-2.64 6 -5.28 6 -8 6 C-10.58295504 12.98237846 -10.44629989 20.06239767 -10.625 27.4375 C-10.66367187 28.74138672 -10.70234375 30.04527344 -10.7421875 31.38867188 C-10.83606701 34.59230999 -10.92175154 37.79594832 -11 41 C-12.65 41 -14.3 41 -16 41 C-16 27.8 -16 14.6 -16 1 C-14.35 1 -12.7 1 -11 1 C-10.67 1.66 -10.34 2.32 -10 3 C-9.46375 2.505 -8.9275 2.01 -8.375 1.5 C-5.37505704 -0.39470082 -3.48955396 -0.30343947 0 0 Z " fill="#BE399C" transform="translate(643,286)"/>
<path d="" fill="#9447A1" transform="translate(0,0)"/>
<path d="M0 0 C3 1 3 1 3 1 Z " fill="#9049A1" transform="translate(175,194)"/>
<path d="M0 0 C3 1 3 1 3 1 Z " fill="#5F59A6" transform="translate(720,97)"/>
<path d="M0 0 C2 1 2 1 2 1 Z " fill="#9547A1" transform="translate(726,203)"/>
<path d="" fill="#6657A6" transform="translate(0,0)"/>
<path d="" fill="#585BA7" transform="translate(0,0)"/>
<path d="" fill="#4F5EA8" transform="translate(0,0)"/>
<path d="M0 0 C2 1 2 1 2 1 Z " fill="#4462A9" transform="translate(390,29)"/>
<path d="" fill="#9547A1" transform="translate(0,0)"/>
<path d="" fill="#9547A1" transform="translate(0,0)"/>
<path d="" fill="#9547A1" transform="translate(0,0)"/>
<path d="" fill="#874CA2" transform="translate(0,0)"/>
<path d="" fill="#834DA3" transform="translate(0,0)"/>
<path d="" fill="#814EA3" transform="translate(0,0)"/>
<path d="" fill="#814EA3" transform="translate(0,0)"/>
<path d="" fill="#814EA3" transform="translate(0,0)"/>
<path d="" fill="#7E4FA3" transform="translate(0,0)"/>
<path d="" fill="#7253A5" transform="translate(0,0)"/>
<path d="" fill="#7153A5" transform="translate(0,0)"/>
<path d="" fill="#7153A5" transform="translate(0,0)"/>
<path d="" fill="#7153A5" transform="translate(0,0)"/>
<path d="" fill="#6E54A5" transform="translate(0,0)"/>
<path d="" fill="#6757A6" transform="translate(0,0)"/>
<path d="" fill="#5F59A6" transform="translate(0,0)"/>
<path d="" fill="#5F59A6" transform="translate(0,0)"/>
<path d="" fill="#5F59A6" transform="translate(0,0)"/>
<path d="" fill="#595BA7" transform="translate(0,0)"/>
<path d="" fill="#575CA7" transform="translate(0,0)"/>
<path d="" fill="#565CA7" transform="translate(0,0)"/>
<path d="" fill="#545DA8" transform="translate(0,0)"/>
<path d="" fill="#525EA8" transform="translate(0,0)"/>
<path d="" fill="#515EA8" transform="translate(0,0)"/>
<path d="" fill="#4E5FA8" transform="translate(0,0)"/>
<path d="" fill="#4E5FA8" transform="translate(0,0)"/>
<path d="" fill="#4462A9" transform="translate(0,0)"/>
<path d="" fill="#4064AA" transform="translate(0,0)"/>
</svg>
